<svg xmlns="http://www.w3.org/2000/svg" version="1.1" xmlns:xlink="http://www.w3.org/1999/xlink" width="1024" height="1024"><svg xmlns="http://www.w3.org/2000/svg" width="1024" height="1024" viewBox="0 0 1024 1024">
    <path fill="#475B6C" d="M497.613 32.229C762.422 24.1524 983.774 231.997 992.366 496.789C1000.96 761.581 793.544 983.338 528.769 992.444C263.265 1001.58 40.7643 793.466 32.149 527.945C23.5336 262.424 232.076 40.3279 497.613 32.229Z"></path>
    <path fill="#FEFEFE" d="M514.307 78.3173C521.397 87.3107 534.07 104.69 537.29 115.197C538.312 118.532 538.402 121.996 538.739 125.442C540.647 144.945 550.933 141.974 562.298 151.719C571.53 159.633 556.318 172.064 557.622 182.517C558.671 190.928 566.555 200.633 573.112 205.65C577.374 208.912 582.157 211.482 586.477 214.688C604.844 226.527 604.243 241.43 614.336 258.652C614.927 259.661 617.265 263.52 618.56 263.149C620.471 262.601 622.183 260.515 623.513 259.096C636.902 244.807 642.787 237.123 663.494 236.137C652.533 234.122 644.331 235.519 635.035 241.863C629.068 245.935 624.293 251.167 619.649 256.647C613.12 244.447 610.709 229.687 602.397 218.899C589.999 202.808 570.342 203.66 561.87 180.883L562.028 180.128C563.916 171.283 573.693 160.745 567.786 152.025C562.464 144.168 551.176 142.247 545.898 134.37C541.766 128.203 543.821 118.669 541.106 111.698C536.465 99.7858 526.87 89.1639 520.522 77.99C534.025 90.163 547.739 101.909 560.166 115.225C572.907 128.878 584.509 144.321 598.247 156.947C600.318 158.85 602.746 160.56 605.693 160.397C608.471 160.244 610.679 158.227 612.328 156.159C615.68 151.956 617.832 146.86 621.165 142.619C632.446 151.023 642.561 161.483 652.595 171.327C661.256 179.885 670.069 188.288 679.032 196.53C685.487 202.568 691.525 208.718 698.799 213.816C691.381 221.018 684.855 229.07 677.505 236.346C665.399 248.33 616.082 293.8 600.211 293.086C595.236 292.862 591.815 288.191 588.832 284.716C581.106 287.145 573.369 293.011 566.692 297.575C524.982 326.084 488.667 361.558 448.746 392.336C435.664 402.422 421.897 412.064 407.612 420.373C401.468 423.947 395.079 427.069 388.825 430.44C434.738 418.314 502.505 356.878 540.954 326.392C555.23 315.073 570.127 302.325 586.645 294.525C590.845 298.494 595.633 301.184 601.571 300.986C615.725 300.516 635.588 283.095 646.418 274.529C655.282 265.685 665.4 258.037 674.417 249.324C690.063 234.204 704.76 218.194 721.037 203.718C734.755 191.517 749.617 180.58 762.756 167.721C767.898 177.749 769.627 190.865 777.246 199.357C783.136 205.922 797.685 211.819 794.413 222.457C791.234 232.794 783.721 241.11 789.377 252.243C794.917 263.149 805.333 272.777 816.122 278.304C819.49 279.964 822.593 281.55 825.428 284.073C833.069 290.872 838.056 303.428 838.527 313.521C838.986 323.34 837.34 333.316 837.567 343.191C838.052 364.309 842.894 385.417 855.637 402.607C845.145 380.77 844.467 356.563 845.764 332.854C846.364 321.892 847.58 311.569 844.104 300.935C840.613 290.254 833.846 280.849 823.596 275.833C819.915 274.032 815.935 272.811 812.324 270.866C803.416 266.067 794.509 253.105 791.455 243.576C792.964 237.866 795.95 232.538 797.944 226.972C805.081 207.051 786.827 206.767 778.954 193.703C774.761 186.744 773.628 178.083 770.123 170.696L794.254 186.28C798.732 189.167 803.719 191.927 807.699 195.456C811.442 198.776 818.698 209.372 822.493 213.931C837.828 232.357 854.955 250.055 868.172 270.106C878.494 285.764 895.114 314.78 908.434 326.076C902.914 317.524 898.291 308.415 893.334 299.535C889.832 293.262 885.219 286.849 882.903 280.051C885.689 278.33 888.382 276.55 891.039 274.634C897.859 282.579 906.178 289.872 913.678 297.167C920.327 303.634 926.549 310.452 932.914 317.194C936.941 321.459 941.8 325.845 944.999 330.768C952.626 342.501 974.761 408.976 971.936 420.917C971.055 424.641 969.474 428.391 968.218 432.012C962.038 449.822 955.94 458.711 940.127 468.528C947.954 470.217 953.541 468.713 960.898 466.369C955.345 480.252 946.318 488.094 934.897 497.101C939.156 497.712 943.391 498.307 947.682 498.647C945.953 501.419 944.074 503.46 941.59 505.547C926.966 495.441 916.848 484.322 910.402 467.653C916.074 470.281 920.776 471.558 927.045 471.81C911.607 460.47 904.186 444.112 898.029 426.491C890.443 445.169 884.485 454.348 872.068 469.845C876.591 469.617 881.088 469.63 885.614 469.671C877.849 482.653 869.657 493.287 859.16 504.159C864.815 503.852 870.537 504.111 876.199 504.194C868.485 515.76 860.17 525.534 850.11 535.154C858.836 534.989 867.565 535.044 876.288 535.32C868.376 542.124 858.244 547.711 849.345 553.181C845.091 547.915 841.261 542.474 837.828 536.638C841.745 536.434 845.669 535.994 849.577 535.65C842.168 526.586 835.057 515.656 830.059 505.056C827.997 500.685 826.482 496.063 824.578 491.618C816.76 510.578 811.229 519.847 797.96 535.488C803.078 535.328 808.138 535.195 813.257 535.461C808.843 542.387 803.623 549.17 798.1 555.239C794.994 558.652 791.582 561.76 788.57 565.262L788.143 565.766C795.099 566.362 802.3 566.005 809.298 566.156C801.342 578.504 781.235 592.979 768.495 599.992C764.496 596.547 760.944 592.655 757.606 588.577C761.824 588.39 766.052 588.49 770.273 588.533C767.519 583.032 763.922 577.927 760.609 572.749C754.053 562.498 749.01 552.801 745.536 541.123C742.878 558.656 731.861 573.041 721.958 587.214C726.605 587.393 731.215 587.634 735.848 588.07C730.292 598.296 720.666 606.124 713.363 615.058C719.552 615.044 725.741 615.112 731.928 615.263C720.224 631.444 672.936 659.19 653.453 668.722C656.337 674.251 659.889 679.423 662.721 685.005C671.769 702.843 680.167 725.886 683.734 745.689C701.46 750.487 718.916 757.1 736.523 762.411C771.43 773.11 806.785 782.289 842.489 789.919C856.441 792.895 870.304 795.944 884.422 798.036C883.42 799.502 882.368 800.933 881.269 802.327C815.859 884.966 724.757 943.429 622.38 968.464C600.303 973.862 577.91 976.791 555.4 979.617C545.424 974.721 534.695 971.937 524.801 967.088C467.419 938.804 411.792 907.09 358.223 872.117C326.059 850.511 295.131 827.122 265.582 802.058C256.329 794.313 246.907 786.708 237.892 778.687C180.254 727.406 101.476 644.937 85.9444 567.406C81.5559 545.499 82.44 529.541 95.0016 510.701C112.639 484.249 140.622 471.283 168.678 458.822C176.081 455.534 184.81 450.769 192.774 449.2C193.415 438.933 198.391 419.707 197.66 411.227C194.482 408.241 182.016 406.645 177.49 405.672C150.416 399.613 123.079 394.797 95.5651 391.238C83.8344 389.609 71.9688 387.705 60.1523 386.871C63.4065 369.074 72.2987 342.288 80.3441 326.157C91.5855 321.285 102.514 314.253 113.072 307.973C145.645 288.601 179.578 268.264 203.914 238.655C207.61 239.556 211.888 240.936 215.695 240.871C217.741 240.837 219.391 240.414 221.093 239.261C228.506 234.236 234.931 225.972 241.055 219.455C248.776 211.238 256.642 203.163 264.294 194.881C265.41 193.509 266.673 192.226 267.863 190.917C269.467 192.501 269.479 195.433 270.376 197.486L268.554 201.862C253.037 240.299 235.974 274.203 205.333 302.95C194.505 313.108 182.015 320.963 169.481 328.812C168.497 329.428 165.077 331.235 165.406 332.289C182.345 323.962 198.739 315.321 214.647 305.106C224.381 298.856 233.442 291.596 243.295 285.514C257.633 276.664 277.572 266.841 289.833 256.182C295.506 251.251 300.264 244.453 303.13 237.526C310.273 248.574 325.781 287.759 331.261 292.932C330.341 288.242 328.237 283.52 326.619 279.024C321.127 263.756 315.251 248.195 307.042 234.132C304.326 229.479 298.863 226.401 296.726 221.401C295.594 218.752 296.074 216.017 297.588 213.63C303.295 204.633 313.155 204.199 316.17 192.244L315.954 191.526C312.856 181.418 307.219 178.53 305.781 166.19C305.593 164.578 305.204 162.302 305.802 160.782C305.857 160.641 305.947 160.516 306.019 160.382C308.443 160.103 311.048 162.628 312.841 164.047C319.847 169.593 326.808 175.183 333.243 181.393C339.299 187.237 351.779 202.51 358.131 206.062C362.95 208.756 369.042 208.493 374.376 208.108C378.282 211.909 381.46 216.591 384.707 220.955C390.065 228.156 395.337 235.352 401.351 242.031C418.282 260.831 437.797 276.646 456.64 293.38C448.575 281.221 432.843 265.173 421.876 255.375C410.904 245.771 400.39 233.627 391.744 221.852C386.419 214.599 381.527 206.621 375.453 199.985C382.722 192.006 390.697 184.573 398.241 176.844C405.255 169.657 412.567 160.531 420.768 154.782C424.347 158.435 429.001 167.34 433.901 168.656C437.229 168.26 439.757 166.57 442.169 164.302C446.454 160.273 450.082 155.38 453.807 150.834L471.343 129.442C485.484 112.247 500.184 95.5196 514.307 78.3173Z"></path>
    <path fill="#C5CDCF" d="M514.307 78.3173C521.397 87.3107 534.07 104.69 537.29 115.197C538.312 118.532 538.402 121.996 538.739 125.442C540.647 144.945 550.933 141.974 562.298 151.719C571.53 159.633 556.318 172.064 557.622 182.517C558.671 190.928 566.555 200.633 573.112 205.65C577.374 208.912 582.157 211.482 586.477 214.688C579.169 214.413 571.134 214.665 563.853 215.406C560.626 209.191 556.598 202.486 549.481 200.253C544.266 198.617 539.381 200.472 534.831 203.025C515.424 213.914 503.875 233.274 494.732 252.896C496.71 243.035 497.73 227.483 492 218.618C489.683 215.034 486.252 212.813 482.051 212.09C471.978 210.358 460.094 216.233 452.194 222.015C444.637 227.547 431.199 241.401 427.192 249.958C425.73 252.014 423.717 253.664 421.876 255.375C410.904 245.771 400.39 233.627 391.744 221.852C386.419 214.599 381.527 206.621 375.453 199.985C382.722 192.006 390.697 184.573 398.241 176.844C405.255 169.657 412.567 160.531 420.768 154.782C424.347 158.435 429.001 167.34 433.901 168.656C437.229 168.26 439.757 166.57 442.169 164.302C446.454 160.273 450.082 155.38 453.807 150.834L471.343 129.442C485.484 112.247 500.184 95.5196 514.307 78.3173Z"></path>
    <path fill="#1D3D55" d="M520.299 115.013C520.301 115.055 520.308 115.098 520.305 115.14C520.122 117.913 510.137 127.937 507.741 130.605C498.255 141.169 488.851 151.926 479.035 162.18C465.413 176.408 451.2 190.05 437.264 203.968C437.704 201.169 442.824 196.033 444.724 193.702C467.909 165.617 493.172 139.313 520.299 115.013Z"></path>
    <path fill="#1D3D55" d="M547.747 158.434L548.244 159.05C541.14 172.437 522.173 192.974 512.065 205.215L511.715 204.68C516.863 194.462 538.7 164.738 547.747 158.434Z"></path>
    <path fill="#C5CDCF" d="M762.756 167.721C767.898 177.749 769.627 190.865 777.246 199.357C783.136 205.922 797.685 211.819 794.413 222.457C791.234 232.794 783.721 241.11 789.377 252.243C794.917 263.149 805.333 272.777 816.122 278.304C812.741 285.365 800.915 299.978 795.16 305.037C796.299 301.935 797.524 298.814 797.994 295.526C798.737 290.325 797.033 285.235 793.845 281.123C788.766 274.571 780.504 270.404 772.331 269.534C753.36 267.515 730.826 283.295 716.674 294.581C719.505 288.346 722.461 282.055 724.694 275.578C726.345 270.789 728.428 263.561 725.821 258.845C725.018 257.393 723.459 256.516 721.892 256.137C706.907 252.515 661.972 281.804 648.069 289.932C645.29 283.028 647.824 279.464 646.418 274.529C655.282 265.685 665.4 258.037 674.417 249.324C690.063 234.204 704.76 218.194 721.037 203.718C734.755 191.517 749.617 180.58 762.756 167.721Z"></path>
    <path fill="#1D3D55" d="M690.207 252.787C708.715 235.398 725.529 216.325 743.457 198.35C748.989 192.803 754.483 186.685 760.452 181.642C759.003 185.403 757.4 188.486 755.053 191.759C749.833 199.038 743.12 205.473 736.889 211.887C728.889 220.121 720.917 228.445 712.294 236.035C705.61 241.918 698.551 247.431 691.613 253.014L690.207 252.787Z"></path>
    <path fill="#1D3D55" d="M779.292 215.397C779.346 215.461 779.408 215.52 779.456 215.589C780.02 216.408 780.103 217.151 779.975 218.126C778.431 229.953 747.673 262.815 737.458 270.7L737.332 270.643L737.225 269.958C740.435 263.94 745.737 258.349 749.846 252.847C758.207 241.654 769.016 224.424 779.292 215.397Z"></path>
    <path fill="#8A9296" d="M691.613 253.014C690.545 254.035 689.076 255.467 687.536 255.451C687.954 254.141 689.137 253.544 690.207 252.787L691.613 253.014Z"></path>
    <path fill="#2E485F" d="M648.069 289.932C661.972 281.804 706.907 252.515 721.892 256.137C723.459 256.516 725.018 257.393 725.821 258.845C728.428 263.561 726.345 270.789 724.694 275.578C722.461 282.055 719.505 288.346 716.674 294.581C730.826 283.295 753.36 267.515 772.331 269.534C780.504 270.404 788.766 274.571 793.845 281.123C797.033 285.235 798.737 290.325 797.994 295.526C797.524 298.814 796.299 301.935 795.16 305.037C785.295 319.944 767.653 330.896 752.177 339.386C763.036 329.606 790.561 309.864 792.986 295.877C793.746 291.498 792.694 287.302 790.003 283.781C785.795 278.274 779.339 274.37 772.453 273.464C753.709 270.999 722.399 293.273 707.649 304.459L707.958 303.95C712.527 296.428 725.54 270.804 722.723 262.793C722.328 261.672 721.819 260.925 720.721 260.409C710.592 255.65 664.748 286.23 654.213 292.132C642.367 298.768 630.324 305.423 617.668 310.38C627.976 303.828 637.683 296.329 648.069 289.932Z"></path>
    <path fill="#2E485F" d="M494.732 252.896C503.875 233.274 515.424 213.914 534.831 203.025C539.381 200.472 544.266 198.617 549.481 200.253C556.598 202.486 560.626 209.191 563.853 215.406C567.098 223.206 570.111 230.965 571.996 239.228L571.577 239.798C570 239.456 569.196 238.717 568.355 237.392C562.816 228.672 559.847 207.713 548.075 204.927C542.503 203.608 536.644 207.223 532.185 210.205C512.596 223.305 508.358 239.741 494.341 256.069C493.369 246.657 493.354 224.441 485.44 218.351C482.52 216.104 478.995 215.776 475.465 216.415C471.206 217.186 467.07 219.099 463.243 221.061C448.721 228.509 439.369 239.75 427.192 249.958C431.199 241.401 444.637 227.547 452.194 222.015C460.094 216.233 471.978 210.358 482.051 212.09C486.252 212.813 489.683 215.034 492 218.618C497.73 227.483 496.71 243.035 494.732 252.896Z"></path>
    <path fill="#EAEAEA" d="M267.863 190.917C269.467 192.501 269.479 195.433 270.376 197.486L268.554 201.862C267.921 198.074 267.326 197.223 264.294 194.881C265.41 193.509 266.673 192.226 267.863 190.917Z"></path>
    <path fill="#2E485F" d="M657.657 396.722C658.383 395.043 659.112 393.356 659.925 391.717C663.529 384.456 669.077 380.314 676.682 377.913C690.033 373.697 707.271 374.489 719.723 381.158C735.062 389.374 742.757 406.637 737.194 423.434C735.62 428.187 731.744 432.981 731.591 438.035C731.468 442.107 734.343 445.126 735.27 448.893C735.51 449.868 735.46 450.964 734.903 451.814C733.533 453.904 730.864 453.98 728.606 454.365C728.49 456.363 728.632 458.877 727.738 460.703C725.078 466.133 720.12 475.062 714.099 476.91C707.512 478.93 700.333 474.866 694.638 472.017C691.386 479.724 684.596 483.344 678.663 488.809C689.605 498.755 690.448 503.855 687.53 517.843C686.768 521.495 686.211 524.936 686.899 528.668C687.537 532.121 689.39 534.812 690.819 537.942C693.167 543.085 690.11 549.567 688.243 554.407C691.504 555.086 695.395 555.483 698.002 557.73C701.361 560.624 700.871 566.292 701.044 570.296C703.229 571.156 705.325 572.166 707.438 573.187C706.297 580.471 706.531 586.047 702.206 592.349C703.914 599.47 706.088 607.275 702.537 614.25C700.401 618.444 696.382 621.017 691.983 622.382C689.889 623.032 678.954 625.493 677.127 625.061C675.891 624.768 674.177 623.357 672.911 622.809C670.361 621.704 667.509 621.367 665.055 620.017C662.12 618.401 660.578 615.992 659.637 612.847C659.404 612.067 659.646 612.46 658.869 611.829C657.264 613.135 657.939 620.29 657.723 622.728C656.706 634.19 649.652 651.291 644.379 661.547C647.432 668.64 651.553 675.402 654.96 682.356C660.594 693.989 665.62 705.907 670.017 718.062C672.498 724.809 674.895 731.659 676.414 738.695C678.028 746.173 678.831 753.831 680.325 761.337C682.812 773.836 686.265 786.938 690.583 798.928C693.063 805.811 702.337 819.807 700.341 826.961C699.419 830.263 697.121 832.307 694.26 833.958C698.626 841.635 702.072 849.949 705.961 857.89L707.558 857.64C708.928 857.656 709.676 857.636 710.705 858.64C711.361 859.281 711.917 860.098 712.467 860.832C714.679 861.926 717.076 860.296 718.281 862.988C718.217 863.18 718.143 863.37 718.088 863.566C717.858 864.39 717.909 864.949 717.998 865.782C719.097 864.621 719.132 864.199 720.782 864.138L722.092 864.846C725.037 863.887 727.75 865.791 730.877 865.785C736.982 865.773 746.88 862.43 752.305 865.331C754.197 866.342 755.734 868.33 757.016 870.01C757.583 873.194 758.611 876.392 756.549 879.244C754.612 881.923 751.483 883.943 748.696 885.655C732.222 895.779 712.267 897.238 693.498 899.718C691.131 900.03 686.729 900.815 684.699 899.325C680.373 896.149 680.678 884.332 680.586 879.317C680.537 876.656 680.504 873.989 681.548 871.488C677.193 862.625 672.26 854.002 667.994 845.117C665.52 845.811 663.686 846.286 661.349 844.867C654.975 840.999 649.455 826.551 647.957 819.321C647.806 818.596 647.992 818.18 648.497 817.594C648.756 817.293 649.347 816.873 649.678 816.626C638.056 794.042 638.193 765.353 625.805 743.917C621.709 736.829 614.774 729.453 608.653 723.991C603.828 730.71 599.841 738.215 594.689 744.649C589.367 751.296 583.498 757.514 578.072 764.08C572.227 771.153 566.773 778.564 560.883 785.589C558.316 788.652 553.811 791.795 552.092 795.327C552.825 797.424 552.998 797.928 552.02 800.009C549.245 805.912 544.115 812.626 538.862 816.523C536.577 816.475 534.291 816.496 532.028 816.15C526.105 822.167 509.863 837.62 509.093 845.611C509.792 848.388 513.623 849.042 514.216 851.818C514.694 854.054 513.2 858.117 513.091 860.558C512.96 863.503 513.614 866.791 514.207 869.676C514.366 869.821 514.525 869.968 514.686 870.112C522.411 876.988 536.292 878.087 537.073 890.647C537.187 892.465 536.791 894.225 535.488 895.567C531.64 899.529 520.713 899.085 515.562 898.91C495.379 898.223 489.893 888.405 476.711 875.558C472.27 871.23 466.984 867.589 462.795 863.044C461.761 861.921 460.827 860.753 459.971 859.49C460.603 857.322 461.332 854.839 462.791 853.058C467.419 858.491 473.543 862.335 478.755 867.157C489.623 877.213 497.26 890.446 513.511 891.728C518.69 892.137 527.869 892.439 532.441 889.802C532.681 888.828 532.782 889.17 532.338 888.342C530.996 885.832 524.448 882.772 521.717 882.199C520.722 881.99 519.696 881.945 518.684 881.884L518.058 881.842L519.859 882.544L519.78 883.085C517.791 883.221 515.172 883.092 513.345 883.938C516.274 884.065 518.479 883.908 520.914 885.825L520.84 886.615C520.066 887.096 519.446 887.417 518.543 887.603C502.123 890.98 491.759 875.502 481.676 865.66C476.21 860.311 470.236 855.507 463.839 851.317C466.62 847.016 475.008 837.885 479.676 835.858C480.279 835.596 481.017 835.391 481.646 835.175C481.967 835.066 482.321 835.028 482.61 834.852C483.759 834.152 502.513 801.891 504.755 798.267L501.422 789.507C503.51 785.336 511.569 770.784 515.243 769.172C517.564 768.154 519.672 763.822 521.218 761.627C524.304 757.247 527.465 752.803 530.868 748.665C533.468 745.504 536.858 742.569 538.843 738.986C541.942 733.391 544.261 723.612 546.587 717.256C550.264 707.212 554.815 697.459 558.14 687.292C559.383 683.491 561.049 678.976 561.092 674.933C561.211 663.477 556.022 651.954 557.587 640.506C558.401 634.558 565.007 620.142 563.794 615.519C562.526 615.702 554.876 621.681 548.671 622.944C536.411 625.439 519.61 621.157 509.29 614.332C506.623 612.568 503.671 610.122 502.99 606.843L503.583 606.251C508.129 606.261 513.441 610.377 517.657 612.127C520.938 613.488 524.419 614.591 527.842 615.519C537.76 618.205 546.975 618.823 556.144 613.43C560.25 611.016 564.163 608.267 568.24 605.799C573.768 602.453 580.462 599.161 585.364 594.971C586.245 594.218 586.588 593.486 586.866 592.387C586.562 591.226 586.797 591.104 585.71 590.451C580.147 593.454 578.348 599.662 570.731 602.311C566.463 603.796 561.924 602.857 557.976 600.873C550.84 597.287 546.868 593.714 544.267 586.062C547.271 571.877 557.68 553.449 563.998 540.099C571.284 524.701 578.074 508.274 587.219 493.88C588.882 491.262 590.741 488.923 593.199 486.99C602.65 479.557 617.709 475.871 629.566 477.455C637.436 478.507 644.333 482.862 649.016 489.203C653.605 495.418 655.988 503.348 656.531 510.993C658.815 543.101 631.901 552.512 630.76 560.087L631.411 560.853C632.007 560.752 632.437 560.782 632.923 560.406C645.146 550.948 657.272 540.722 659.254 524.506C660.856 511.4 658.982 494.888 650.547 484.202C645.532 477.85 638.167 475.068 630.362 474.141C617.292 472.59 601.342 476.645 590.988 484.885C587.812 487.413 585.288 490.294 583.166 493.763C580.134 498.722 577.885 504.313 575.283 509.513C568.235 523.6 561.556 537.701 555.095 552.059C551.345 560.393 546.887 568.647 543.748 577.221C542.604 580.345 541.98 583.154 541.617 586.462C536.36 592.594 531.92 597.872 523.891 600.458C518.234 602.28 505.621 603.527 499.969 601.966C496.865 601.108 493.77 599.327 490.914 597.857C479.471 591.963 463.198 581.529 459.3 568.588C458.05 564.438 458.341 559.786 459.41 555.614C460.862 549.95 463.521 544.493 465.801 539.125C469.829 529.503 474.036 519.957 478.421 510.493C484.105 498.025 489.386 485.333 495.3 472.976C499.114 465.008 503.448 457.285 507.44 449.404C511.455 441.477 515.293 433.339 519.719 425.636C521.867 421.898 525.51 419.134 528.036 415.669C530.395 412.433 531.99 408.448 533.965 404.952C540.071 394.144 550.781 387.359 562.551 384.088C565.766 383.194 568.861 382.798 572.199 382.783C583.108 382.734 593.864 384.436 604.7 385.261C616.544 386.163 629.186 385.373 640.762 388.439C646.735 390.021 652.313 393.704 657.657 396.722Z"></path>
    <path fill="#1D3D55" d="M707.558 857.64C708.928 857.656 709.676 857.636 710.705 858.64C711.361 859.281 711.917 860.098 712.467 860.832C714.679 861.926 717.076 860.296 718.281 862.988C718.217 863.18 718.143 863.37 718.088 863.566C717.858 864.39 717.909 864.949 717.998 865.782C719.097 864.621 719.132 864.199 720.782 864.138C719.569 867.542 722.401 870.777 720.046 873.256L718.874 873.585C717.994 874.346 717.018 875.337 715.848 875.604C714.523 875.906 713.561 875.757 712.435 875.104C711.996 873.889 712.491 872.833 712.85 871.657L715.477 871.185C715.931 869.892 715.396 869.492 714.834 868.312L713.533 868.079C712.991 867.76 712.427 867.217 711.935 866.818C711.226 863.191 708.13 860.984 707.558 857.64Z"></path>
    <path fill="#FEFEFE" d="M713.533 868.079L714.834 868.312C715.396 869.492 715.931 869.892 715.477 871.185L712.85 871.657C712.491 872.833 711.996 873.889 712.435 875.104C713.561 875.757 714.523 875.906 715.848 875.604C717.018 875.337 717.994 874.346 718.874 873.585C719.549 874.383 720.211 875.192 720.859 876.012C720.746 876.735 720.673 877.316 720.378 877.991C719.8 878.207 719.22 878.424 718.623 878.584C715.815 879.337 711.918 876.779 709.497 875.463C710.321 872.745 711.834 870.327 713.533 868.079Z"></path>
    <path fill="#475B6C" d="M720.782 864.138L722.092 864.846C722.343 867.483 722.356 870.365 723.35 872.838C722.386 874.889 721.821 877.334 721.567 879.589L720.378 877.991C720.673 877.316 720.746 876.735 720.859 876.012C720.211 875.192 719.549 874.383 718.874 873.585L720.046 873.256C722.401 870.777 719.569 867.542 720.782 864.138Z"></path>
    <path fill="#EAEAEA" d="M501.52 880.702C507.287 882.148 512.192 882.1 518.058 881.842L519.859 882.544L519.78 883.085C517.791 883.221 515.172 883.092 513.345 883.938C508.92 884.259 505.352 882.637 501.52 880.702Z"></path>
    <path fill="#2E485F" d="M706.024 870.62C706.849 870.975 707.349 871.098 708.216 871.228C709.998 870.53 710.439 868.807 711.516 867.371L711.935 866.818C712.427 867.217 712.991 867.76 713.533 868.079C711.834 870.327 710.321 872.745 709.497 875.463C709.184 875.166 709.44 875.368 708.522 875.248C707.604 873.579 706.389 872.583 706.024 870.62Z"></path>
    <path fill="#EAEAEA" d="M705.961 857.89L707.558 857.64C708.13 860.984 711.226 863.191 711.935 866.818L711.516 867.371C710.439 868.807 709.998 870.53 708.216 871.228C707.349 871.098 706.849 870.975 706.024 870.62L706.992 869.058C707.424 869.545 707.112 869.251 708.074 869.758C708.223 869.679 708.379 869.612 708.522 869.521C709.349 868.994 710.073 868.038 710.187 867.036C710.376 865.37 709.348 863.673 708.492 862.347C707.55 860.89 706.741 859.44 705.961 857.89Z"></path>
    <path fill="#FEFEFE" d="M708.522 875.248C707.698 875.146 706.836 875.053 706.037 874.82C704.91 874.491 703.69 873.751 703.316 872.575C702.895 871.249 703.278 870.855 703.923 869.748C705.312 869.033 705.475 868.816 706.992 869.058L706.024 870.62C706.389 872.583 707.604 873.579 708.522 875.248Z"></path>
    <path fill="#EAEAEA" d="M721.567 879.589C721.821 877.334 722.386 874.889 723.35 872.838C723.538 874.714 724.127 877.526 722.776 879.108C722.367 879.586 722.287 879.449 721.567 879.589Z"></path>
    <path fill="#FEFEFE" d="M529.528 422.412C535.423 427.163 540.727 432.382 546.975 436.754C563.009 447.974 585.023 454.695 604.514 455.202C594.53 465.414 585.299 485.016 575.868 497.272C569.62 497.027 563.469 495.51 557.53 493.628C541.27 488.476 518.399 475.825 510.252 460.154C509.046 462.298 508.019 464.561 506.939 466.771C507.61 467.868 508.304 468.961 509.092 469.979C523.366 488.431 549.066 500.508 571.812 503.351C563.426 517.833 556.518 533.262 549.999 548.663C528.693 547.631 513.054 539.625 496.201 527.162C501.222 516.128 507.24 504.218 508.82 492.117C502.486 502.18 497.446 513.208 492.379 523.951C489.078 521.781 486.058 519.27 482.997 516.781C490.881 499.356 498.422 481.597 506.838 464.432C510.636 456.686 514.922 449.14 519.02 441.546C522.475 435.144 525.62 428.555 529.528 422.412Z"></path>
    <path fill="#1D3D55" d="M562.645 460.214C563.603 460.727 563.758 460.867 564.341 461.784C564.386 466.257 556.185 480.853 553.55 485.355C552.762 485.002 552.553 484.835 551.978 484.24C551.846 478.867 559.583 465.122 562.645 460.214Z"></path>
    <path fill="#1D3D55" d="M533.16 444.216C534.161 444.649 534.05 444.442 534.651 445.512C533.85 451.21 526.34 463.326 523.016 468.285C522.343 467.837 521.372 467.551 521.286 466.675C520.889 462.632 530.502 447.752 533.16 444.216Z"></path>
    <path fill="#1D3D55" d="M534.366 517.694L535.934 518.168L536.306 519.016C535.784 524.921 529.461 534.948 526.708 540.59C525.635 539.957 525.463 539.765 524.826 538.691C524.991 533.4 531.555 522.529 534.366 517.694Z"></path>
    <path fill="#C5CDCF" d="M640.822 626.181C641.915 625.958 641.816 625.789 642.874 626.359C643.001 626.84 643.087 627.079 643.14 627.549C643.919 634.404 639.218 642.495 635.261 647.734C632.37 643.67 629.118 638.228 624.424 636.117L623.697 636.497C623.689 638.696 624.751 640.747 625.726 642.675C629.016 649.175 633.396 655.161 637.041 661.473C643.991 673.527 650.327 685.924 656.024 698.618C661.52 710.922 667.058 723.992 670.377 737.076C672.415 745.11 673.164 753.464 674.779 761.594C677.32 774.377 681.071 787.079 685.335 799.384C679.933 801.666 674.518 803.916 669.089 806.133L667.293 801.418C664.578 793.173 661.802 784.915 659.701 776.488C656.864 765.11 654.084 747.726 648.943 737.585C644.452 728.726 638.171 720.392 632.546 712.203C613.088 683.871 595.337 661.056 587.285 626.798C605.455 628.513 622.696 629.032 640.822 626.181Z"></path>
    <path fill="#C5CDCF" d="M634.972 489.006C637.572 488.837 639.853 489.599 641.884 491.262C646.47 495.019 648.814 503.536 649.174 509.307C650.401 528.961 636.393 543.262 624.457 556.946C617.305 555.561 611.271 556.042 604.42 558.46C609.874 559.216 615.357 559.56 620.815 560.39C617.618 561.061 613.248 561.667 610.838 564.023C610.052 564.792 609.449 565.422 609.5 566.553C615.706 565.733 622.874 564.385 629.126 565.128C632.922 565.58 636.834 567.244 640.437 568.473C646.963 570.701 652.862 571.861 659.729 571.99C661.404 572.021 664.216 571.802 665.367 573.224C667.076 575.335 666.515 579.17 666.463 581.747L665.26 589.373C646.58 592.02 616.176 595.055 598.074 590.621C594.808 589.821 591.654 588.48 589.954 585.415C586.731 579.603 588.652 570.846 590.408 564.786C596.166 544.914 617.368 498.692 634.972 489.006Z"></path>
    <path fill="#C5CDCF" d="M566.916 679.84C570.938 684.798 574.993 689.765 578.523 695.091C585.736 705.974 591.792 717.681 598.909 728.677C593.649 734.494 589.505 741.367 584.666 747.547C579.273 754.435 573.463 761.02 567.934 767.801C561.419 775.792 555.128 783.959 548.257 791.651C543.178 788.872 538.014 786.296 533.013 783.37C535.814 779.5 539.09 775.882 542.147 772.207C547.285 766.429 553.651 761.011 557.014 753.965C546.791 758.726 537.373 773.112 530.312 781.866C526.862 778.805 523.589 775.531 520.794 771.857C527.762 760.756 537.027 751.674 543.607 741.202C548.328 733.687 550.891 722.787 554.042 714.401C558.383 702.848 563.467 691.716 566.916 679.84Z"></path>
    <path fill="#C5CDCF" d="M570.131 624.584C574.724 624.459 579.111 625.291 583.565 626.326C585.547 634.254 587.548 642.19 590.503 649.823C599.19 672.259 614.391 692.447 628.345 711.832C634.892 720.928 642.68 730.613 647.563 740.708C651.817 749.503 652.991 763.003 655.352 772.695C658.222 784.475 661.982 795.849 665.953 807.294C662.824 808.513 659.824 810.047 656.803 811.507L653.745 813.127C649.42 800.794 645.508 788.32 642.014 775.726C639.423 766.062 637.565 750.898 632.917 742.54C628.238 734.128 620.055 726.816 613.687 719.549C601.7 705.873 565.884 664.835 563.75 648.52C562.725 640.682 565.237 630.831 570.131 624.584Z"></path>
    <path fill="#FEFEFE" d="M480.521 520.951C490.473 532.352 511.234 545.957 525.422 550.761C532.694 553.224 539.998 554.294 547.587 555.122C545.253 559.809 543 564.598 541.117 569.489C537.431 579.058 535.737 588.685 525.765 593.886C518.502 597.675 507.212 596.367 499.605 594.115C504.398 581.905 509.508 569.551 511.758 556.565C509.856 559.058 508.471 561.664 507.043 564.443C502.668 573.325 497.878 582.223 494.889 591.685C487.74 588.259 480.993 583.686 474.574 579.054C479.248 567.851 485.97 550.344 488.105 538.612C480.299 549.26 475.84 562.183 469.791 573.845C467.233 570.282 465.648 566.998 464.425 562.786C467.134 549.479 475.139 533.766 480.521 520.951Z"></path>
    <path fill="#FEFEFE" d="M729.37 410.01L729.742 410.438C731.613 420.504 730.71 424.697 728.081 434.547C726.152 441.77 729.007 444.726 732.388 450.6C728.92 450.398 723.892 448.757 720.897 450.573C721.187 452.126 723.326 452.824 724.444 453.944C725.476 454.976 725.446 455.646 725.432 457.043C723.194 460.407 712.633 453.627 708.304 454.606L707.739 455.614C707.812 462.459 717.84 459.291 721.519 462.983C720.882 464.193 717.937 463.858 716.589 465.052C716.81 466.518 717.803 467.075 718.829 468.096C717.265 469.981 715.819 471.782 713.465 472.674C709.846 474.045 706.559 472.552 703.265 471.093C699.855 469.119 696.415 467.163 693.122 464.997C686.301 460.511 681.493 454.333 682.454 445.731C682.726 443.302 683.651 440.717 683.139 438.3C680.809 437.628 678.031 437.117 676.607 434.951C675.533 433.316 675.234 430.802 675.809 428.935C676.157 427.803 676.501 426.925 677.506 426.304C679.471 428.308 679.12 431.976 680.986 434.158C681.59 434.864 681.698 434.695 682.554 434.79C682.822 434.613 683.314 434.311 683.518 434.076C684.539 432.897 683.176 428.469 682.901 426.913C703.119 427.546 713.99 422.477 729.37 410.01Z"></path>
    <path fill="#1D3D55" d="M712.917 433.563C714.173 433.656 715.521 433.701 716.754 433.951C717.978 434.199 718.635 434.607 719.33 435.606C718.774 436.616 718.177 436.861 717.178 437.359C716.248 437.822 715.903 437.944 715.201 438.738C715.531 439.636 715.716 440.243 715.675 441.204C714.377 441.133 713.622 441.088 712.448 440.459C712.312 439.153 712.139 438.45 711.435 437.337C710.445 437.269 709.461 437.245 708.469 437.228L708.569 436.53C709.923 435.126 711.149 434.375 712.917 433.563Z"></path>
    <path fill="#1D3D55" d="M718.537 426.139C720.067 425.964 721.384 425.923 722.919 426.032C724.151 426.797 724.262 426.772 724.732 428.126C724.217 429.431 724.094 429.536 722.943 430.349C721.501 430.547 720.811 430.581 719.398 430.064C716.262 429.214 713.215 428.931 709.985 428.676C712.854 427.55 715.481 426.639 718.537 426.139Z"></path>
    <path fill="#C5CDCF" d="M664.572 519.005C666.836 519.057 669.1 519.142 671.362 519.259C673.591 524.776 676.728 530.263 678.135 536.053C681.771 551.008 669.871 556.591 663.438 567.451L663.043 568.133C659.649 568.055 656.359 567.899 652.998 567.411C647.966 566.761 643.178 565.344 638.377 563.747C654.82 549.802 662.54 540.632 664.572 519.005Z"></path>
    <path fill="#FEFEFE" d="M610.567 390.562C615.956 390.355 622.956 391.908 628.06 393.724C633.382 395.618 638.742 400.139 641.043 405.391C641.567 406.589 641.549 406.046 641.093 407.2C639.753 407.321 638.36 407.388 637.289 408.306C630.807 413.863 626.615 422.816 625.688 431.23C625.189 435.763 625.691 440.37 627.577 444.553C634.228 459.308 646.331 448.535 657.876 463.39C663.657 470.829 667.609 483.615 666.38 492.992L665.588 493.343C661.912 487.726 662.6 474.797 657.562 467.493C651.949 459.357 644.939 458.05 636.142 455.539C634.518 455.075 632.517 454.608 631.12 453.66C629.722 452.709 628.476 451.274 627.302 450.061C618.258 449.318 608.997 450.044 599.876 449.472C599.627 449.468 599.377 449.471 599.128 449.458C580.709 448.542 555.134 438.351 542.794 424.28C543.325 421.499 544.108 418.927 545.005 416.25C547.088 417.781 549.378 419.082 551.573 420.448C549.839 421.773 548.013 422.995 546.228 424.253C546.513 424.608 546.798 424.963 547.097 425.307L547.488 425.75C552.272 431.259 577.639 442.435 585.204 444.872C588.817 446.037 592.419 446.772 596.197 447.152C600.79 447.614 622.999 448.473 625.894 446.092L625.967 445.033C625.194 444.815 624.369 444.614 623.633 444.291C622.536 443.809 621.681 443.165 621.372 441.945C620.293 437.682 627.003 419.471 629.124 414.691C625.323 401.248 621.582 398.022 610.567 390.562Z"></path>
    <path fill="#C5CDCF" d="M686.547 804.39C686.63 804.403 686.719 804.395 686.795 804.43C689.011 805.454 695.072 822.527 696.117 825.709C691.332 828.146 686.805 831.082 681.986 833.436C676.197 836.263 670.093 838.07 663.936 839.881C659.527 833.908 656.49 827.295 653.243 820.653L653.113 819.79C654.581 818.04 664.08 815.309 666.742 814.014L667.555 813.615C669.994 819.384 672.816 826.009 676.919 830.787C679.309 828.933 681.078 826.963 682.92 824.599C678.717 820.121 674.45 817.15 670.932 811.943C676.3 809.691 681.438 807.17 686.547 804.39Z"></path>
    <path fill="#C5CDCF" d="M517.477 774.393C519.928 776.827 521.115 781.04 523.296 783.841C527.905 789.759 540.131 794.832 547.107 798.061C544.535 802.565 541.647 806.919 538.223 810.822C534.434 810.74 530.696 809.774 527.112 808.587C517.681 805.463 511.803 799.833 507.363 791.066C509.585 784.934 513.634 779.583 517.477 774.393Z"></path>
    <path fill="#FEFEFE" d="M587.811 388.997C589.655 389.038 591.464 389.276 593.276 389.606C602.228 391.237 614.319 397.306 619.427 405.075C625.348 414.079 618.873 430.27 616.723 440.078C616.527 441.293 616.343 441.97 615.63 442.98C613.095 444.127 609.854 443.848 607.08 444.022C608.444 436.764 608.644 429.336 607.671 422.016C605.728 407.305 599.462 397.934 587.811 388.997Z"></path>
    <path fill="#FEFEFE" d="M508.267 803.3C513.28 808.815 518.884 811.887 525.505 815.089C517.683 823.317 510.223 831.17 503.383 840.277L500.835 843.029C498.431 843.416 495.312 844.118 493.024 843.033C491.424 842.275 490.47 840.936 490.065 839.24C488.448 832.463 503.925 810.171 508.267 803.3Z"></path>
    <path fill="#C5CDCF" d="M572.951 608.922C596.504 612.569 622.462 617.815 645.993 611.833L645.924 618.615L640.879 619.656C618.539 623.846 586.88 623.283 565.715 614.731C568.043 612.607 570.347 610.7 572.951 608.922Z"></path>
    <path fill="#FEFEFE" d="M567.071 389.683C569.455 389.514 571.849 389.363 574.222 389.752C582.518 391.112 589.702 396.985 594.495 403.651C602.929 415.382 604.035 430.1 601.802 443.973L594.206 443.149C596.612 439.539 598.043 436.57 598.318 432.107C598.979 421.377 594.379 411.309 587.44 403.442C582.599 398.896 577.099 395.108 570.239 394.633C563.107 394.14 555.681 397.456 550.419 402.14C544.733 407.201 540.34 414.852 539.842 422.487C537.712 421.084 535.779 419.654 533.835 417.998C535.498 413.154 537.575 408.657 540.741 404.595C547.268 396.22 556.598 391.038 567.071 389.683Z"></path>
    <path fill="#FEFEFE" d="M685.777 569.066C688.806 568.809 695.514 568.573 698.186 569.888C698.856 570.218 698.658 570.247 698.958 571.083C698.653 571.911 698.373 572.644 698.271 573.528C698.026 575.65 702.797 575.995 704.059 577.492C703.717 578.683 703.845 578.94 702.84 579.747C700.963 579.417 699.389 578.3 697.526 578.09C696.516 577.975 696.933 577.877 696.138 578.524L696.142 579.692C697.377 581.857 699.952 583.052 701.79 584.742C702.113 586.022 702.014 585.785 701.48 586.855L700.445 587.057C699.08 586.504 697.764 585.779 696.258 585.956C694.768 588.196 696.248 590.82 694.593 592.962C692.957 593.889 691.039 593.958 689.204 594.18C684.476 593.427 679.934 592.645 675.407 591.041L674.423 586.769L673.898 586.448C672.795 587.293 671.747 588.16 670.703 589.077L670 588.803C668.572 584.947 670.064 579.337 669.555 575.075L669.453 574.255L674.661 581.158C674.392 579.485 673.836 577.349 674.28 575.67C675.202 572.181 682.671 570.652 685.777 569.066Z"></path>
    <path fill="#C5CDCF" d="M591.583 595.983C608.999 600.819 632.322 600.367 650.289 599.508C649.169 601.535 647.915 603.484 646.689 605.448L640.939 606.935C621.227 610.118 601.042 607.14 581.46 604.313C585.164 601.878 588.48 599.145 591.583 595.983Z"></path>
    <path fill="#FEFEFE" d="M678.318 449.845L678.826 452.008C679.545 455.155 680.498 457.971 682.163 460.763C683.829 463.557 688.376 467.197 688.778 470.307C689.323 474.524 677.713 484.436 674.702 487.419C673.946 487.461 673.27 487.396 672.518 487.322C670.713 484.409 670.783 478.663 669.716 475.197C668.19 470.236 665.577 465.697 663.006 461.223C669.524 458.273 674.208 455.888 678.318 449.845Z"></path>
    <path fill="#FEFEFE" d="M689.161 837.472C689.223 837.491 689.291 837.497 689.347 837.529C690.715 838.317 700.062 858.635 701.114 861.906C699.436 864.994 691.165 867.927 687.802 869.072C682.537 861.246 678.469 852.172 673.874 843.89C679.102 842.079 684.208 839.936 689.161 837.472Z"></path>
    <defs>
        <linearGradient id="SvgjsLinearGradient1065" gradientUnits="userSpaceOnUse" x1="726.58148" y1="860.58521" x2="708.54962" y2="901.3573">
            <stop offset="0" stop-color="#DAD8D8"></stop>
            <stop offset="1" stop-color="white"></stop>
        </linearGradient>
    </defs>
    <path fill="url(#gradient_0)" d="M745.832 869.817C747.75 869.892 748.696 869.744 750.359 870.755C751.139 872.015 751.6 872.759 751.586 874.305C750.008 878.291 740.919 882.485 736.988 884.161C732.663 885.974 728.169 887.355 723.573 888.285C717.3 889.586 688.657 893.174 684.228 891.629C683.611 891.414 683.59 891.36 683.133 891.036L682.982 890.246C683.891 889.084 684.782 889.12 686.215 888.967C696.571 887.855 707.233 887.912 717.512 886.032C720.187 885.543 724.221 882.645 726.098 882.582C726.409 882.347 726.529 881.85 726.686 881.496C725.762 879.884 725.817 878.576 725.818 876.784C726.37 875.69 726.401 875.505 727.461 874.926L729.532 875.907L731.208 874.584C731.752 873.926 731.686 873.825 732.557 873.58C732.61 875.826 731.277 878.523 730.535 880.647C731.341 879.485 732.153 878.318 733.043 877.218C735.703 873.935 741.539 870.22 745.832 869.817Z"></path>
    <path fill="#475B6C" d="M730.535 880.647C731.341 879.485 732.153 878.318 733.043 877.218C735.703 873.935 741.539 870.22 745.832 869.817C744.051 871.135 742.836 872.071 741.772 874.037L745.303 872.71C746.338 872.322 746.869 872.25 747.94 872.528C747.892 873.313 748.063 873.062 747.586 873.486C744.236 876.467 730.261 883.404 725.908 883.582L726.098 882.582C726.409 882.347 726.529 881.85 726.686 881.496C725.762 879.884 725.817 878.576 725.818 876.784C726.37 875.69 726.401 875.505 727.461 874.926L729.532 875.907L731.208 874.584C731.752 873.926 731.686 873.825 732.557 873.58C732.61 875.826 731.277 878.523 730.535 880.647Z"></path>
    <path fill="#EAEAEA" d="M730.535 880.647C731.341 879.485 732.153 878.318 733.043 877.218C735.703 873.935 741.539 870.22 745.832 869.817C744.051 871.135 742.836 872.071 741.772 874.037C738.111 876.76 734.156 879.144 730.322 881.619C730.586 879.276 730.789 876.905 731.208 874.584C731.752 873.926 731.686 873.825 732.557 873.58C732.61 875.826 731.277 878.523 730.535 880.647Z"></path>
    <path fill="#FEFEFE" d="M726.686 881.496C725.762 879.884 725.817 878.576 725.818 876.784C726.37 875.69 726.401 875.505 727.461 874.926L729.532 875.907C728.956 878.134 727.969 879.627 726.686 881.496Z"></path>
    <path fill="#1D3D55" d="M671.497 593.437L670.676 592.987L672.875 593.134C673.594 594.387 673.202 595.712 673.014 597.073C673.88 598.235 675.359 598.472 676.681 598.892L676.603 599.507L675.513 600.078L675.583 600.455C675.79 601.964 675.606 603.332 677.052 604.234C677.215 604.335 677.418 604.347 677.601 604.404C679.53 602.815 677.33 601.256 680.333 600.655C679.985 599.983 679.65 599.325 679.348 598.631C681.404 599.064 680.153 599.969 683.917 600.66C683.799 601.73 683.576 602.312 683.199 603.306C682.664 604.723 682.516 605.764 682.256 607.212C681.986 608.716 680.231 609.684 679.044 610.519L678.734 612.046L677.834 612.37L676.511 611.548C675.696 613.631 675.154 615.357 672.868 616.227C671.353 616.804 669.717 616.673 668.287 615.92C665.593 614.501 663.815 611.527 662.931 608.708C661.859 605.292 661.606 600.742 663.488 597.548C664.629 595.614 665.936 594.798 668.076 594.268L671.497 593.437Z"></path>
    <path fill="#FEFEFE" d="M671.497 593.437C672.3 594.508 672.297 594.622 672.339 595.968C670.625 599.261 667.009 604.161 668.336 607.968C668.974 609.801 671.459 613.093 673.271 613.912C673.394 613.967 673.528 613.995 673.656 614.036C674.568 613.451 674.421 613.804 674.599 612.898C674.912 611.306 673.725 609.045 673.34 607.467C674.753 608.056 675.472 608.903 676.075 610.325C676.245 610.723 676.372 611.138 676.511 611.548C675.696 613.631 675.154 615.357 672.868 616.227C671.353 616.804 669.717 616.673 668.287 615.92C665.593 614.501 663.815 611.527 662.931 608.708C661.859 605.292 661.606 600.742 663.488 597.548C664.629 595.614 665.936 594.798 668.076 594.268L671.497 593.437Z"></path>
    <path fill="#FEFEFE" d="M675.583 600.455C675.79 601.964 675.606 603.332 677.052 604.234C677.215 604.335 677.418 604.347 677.601 604.404C679.53 602.815 677.33 601.256 680.333 600.655C679.985 599.983 679.65 599.325 679.348 598.631C681.404 599.064 680.153 599.969 683.917 600.66C683.799 601.73 683.576 602.312 683.199 603.306C682.664 604.723 682.516 605.764 682.256 607.212C681.986 608.716 680.231 609.684 679.044 610.519C678.506 609.146 677.811 607.841 676.973 606.628C676.536 605.993 676.034 605.351 675.661 604.676C674.846 603.198 675.23 601.998 675.583 600.455Z"></path>
    <path fill="#2E485F" d="M673.34 607.467C673.323 605.913 672.74 604.685 672.301 603.243C671.829 601.695 671.802 600.475 672.58 599.098C674 598.952 674.315 599.36 675.513 600.078L675.583 600.455C675.23 601.998 674.846 603.198 675.661 604.676C676.034 605.351 676.536 605.993 676.973 606.628C677.811 607.841 678.506 609.146 679.044 610.519L678.734 612.046L677.834 612.37L676.511 611.548C676.372 611.138 676.245 610.723 676.075 610.325C675.472 608.903 674.753 608.056 673.34 607.467Z"></path>
    <path fill="#FEFEFE" d="M586.583 506.198C589.543 506.922 592.161 508.092 595.235 508.43C595.552 508.464 595.87 508.488 596.187 508.521C600.922 509.016 605.88 507.63 610.523 506.727L610.79 507.276C610.388 508.096 610.089 508.726 609.282 509.235C603.881 512.643 592.778 510.64 587.06 509.067C586.116 510.735 585.03 512.41 585.205 514.384C586.186 515.272 586.887 515.107 588.139 515.206C589.772 515.335 591.187 515.393 592.729 516.005C593.584 516.344 593.883 516.482 594.869 516.45C595.105 516.443 595.338 516.395 595.572 516.368L596.132 517.121L595.848 518.231C595.214 518.875 594.644 519.75 593.729 519.921C590.13 520.592 585.889 518.126 582.844 516.387C579.647 522.013 577.078 527.938 574.406 533.824C574.292 534.08 574.174 534.334 574.063 534.591C573.418 536.085 572.878 537.602 573.685 539.149C575.751 543.111 581.973 544.527 585.947 545.677L591.911 543.674C590.001 546.592 588.309 549.664 586.566 552.684C582.048 550.885 576.944 549.514 572.723 547.115C571.121 546.206 569.506 545.121 568.968 543.278C569.564 534.458 581.892 514.288 586.583 506.198Z"></path>
    <path fill="#1D3D55" d="M571.056 540.23C573.484 541.82 575.383 544.2 578.074 545.445C580.6 546.613 584.87 546.55 586.702 548.484C586.505 548.51 586.309 548.548 586.111 548.561C581.902 548.835 575.587 546.914 572.442 544.116C571.03 542.859 571.119 541.988 571.056 540.23Z"></path>
    <path fill="#FEFEFE" d="M588.257 411.405C588.315 411.465 588.38 411.52 588.43 411.587C592.402 416.945 594.041 429.585 592.771 436.027C592.401 437.909 591.659 440.218 589.875 441.193C589.004 441.669 588.305 441.244 587.39 441.038C585.22 440.276 583.165 439.501 581.118 438.431C580.154 436.109 587.02 415.419 588.257 411.405Z"></path>
    <path fill="#FEFEFE" d="M493.571 868.178C494.769 863.783 495.69 858.077 497.802 854.089C498.34 853.074 497.973 853.42 499.128 853.058C499.729 853.649 500.383 854.224 500.931 854.862C501.042 854.991 501.135 855.137 501.264 855.249C502.386 856.222 503.848 855.931 505.252 855.967C506.845 857.777 505.741 865.204 505.897 868.1C506.806 869.04 507.873 869.898 508.372 871.118C503.99 871.268 501.27 873.559 497.911 876.081C495.976 873.582 494.718 871.087 493.571 868.178Z"></path>
    <path fill="#1D3D55" d="M499.953 863.757C500.782 863.902 501.742 864.049 502.488 864.469C503.755 865.183 503.914 865.656 504.277 866.947C503.599 868.571 502.997 868.855 501.62 869.898C501.034 869.825 500.044 869.78 499.468 869.55C498.201 869.045 498.107 868.706 497.644 867.533C497.957 865.771 498.736 865.022 499.953 863.757Z"></path>
    <path fill="#1D3D55" d="M499.606 856.812L500.311 857.769C501.279 857.711 502.242 857.6 503.206 857.502C504.19 858.511 504.204 858.895 504.534 860.289C503.117 861.021 501.592 861.884 499.953 861.692C499.029 861.584 499.07 861.312 498.551 860.643C498.484 859.07 498.933 858.174 499.606 856.812Z"></path>
    <path fill="#FEFEFE" d="M716.439 395.027C716.744 395.382 716.548 395.103 716.651 396.029C715.381 398.036 713.891 399.843 712.283 401.588C699.889 415.033 667.714 423.104 649.629 423.972L649.236 423.61C649.669 423.105 676.298 416.942 681.881 414.919C694.6 410.31 705.855 403.343 716.439 395.027Z"></path>
    <path fill="#FEFEFE" d="M574.637 399.643C576.186 400.187 577.18 400.588 578.347 401.763C579.374 405.678 568.995 425.942 566.775 430.845L565.97 430.983C564.652 430.579 563.969 430.458 563.104 429.31C563.025 425.098 572.521 404.77 574.637 399.643Z"></path>
    <path fill="#FEFEFE" d="M565.378 398.61C566.161 398.572 566.96 398.516 567.744 398.549C568.811 398.595 569.497 398.573 570.265 399.374C568.526 406.843 561.346 420.995 557.593 428.045C556.083 427.772 554.727 427.37 553.699 426.185C554.182 423.388 563.465 401.767 565.378 398.61Z"></path>
    <path fill="#FEFEFE" d="M582.554 404.71C583.231 405.176 584.108 405.78 584.627 406.411C585.252 407.172 585.28 407.998 585.206 408.934C585.041 411.012 576.978 435.867 576.461 436.304L575.304 435.864L570.353 433.371C576.272 424.783 579.823 414.705 582.554 404.71Z"></path>
    <path fill="#FEFEFE" d="M677.743 620.034C680.239 617.753 682.759 615.484 685.539 613.547C686.796 612.671 687.761 611.593 688.571 610.279C689.776 608.325 691.904 603.791 691.325 601.634L691.735 601.394L691.785 601.916L691.42 601.544L689.058 603.935L688.56 603.738C688.678 602.421 688.879 601.124 689.079 599.817L690.473 600.077C691.586 599.573 692.553 599.11 693.79 598.99C695.976 598.778 695.282 603.055 696.059 604.472C696.338 604.98 697.597 605.82 698.081 606.245C697.374 608.926 696.188 611.262 694.374 613.365C694.083 613.963 693.769 614.415 693.299 614.889C691.503 616.706 690.082 617.526 687.505 617.456C684.078 617.363 680.988 618.994 677.743 620.034Z"></path>
    <path fill="#475B6C" d="M698.081 606.245C697.374 608.926 696.188 611.262 694.374 613.365C694.267 613.369 694.16 613.384 694.052 613.377C692.446 613.281 691.755 612.922 690.743 611.633C689.986 610.668 689.906 609.978 689.955 608.793C691.531 608.201 692.041 609.245 693.522 609.368C694.266 609.429 696.928 606.736 698.081 606.245Z"></path>
    <path fill="#FEFEFE" d="M635.826 392.365C636.198 392.403 636.572 392.437 636.943 392.49C641.933 393.206 654.268 397.788 656.942 402.177C657.891 403.735 657.683 405.019 657.387 406.701L647.178 407.592C644.958 400.741 640.85 397.118 635.826 392.365Z"></path>
    <path fill="#FEFEFE" d="M682.509 532.902C682.976 533.073 683.3 533.16 683.72 533.484C685.477 534.836 686.574 537.464 686.879 539.598C688.411 550.331 677.725 562.878 671.892 570.892C670.52 570.554 669.637 570.641 668.746 569.484C670.561 565.25 678.106 561.931 680.63 555.005C683.577 546.921 681.138 535.728 681.647 534.262C681.823 533.755 682.222 533.355 682.509 532.902Z"></path>
    <path fill="#FEFEFE" d="M651.156 621.468C651.575 621.5 651.304 621.436 651.824 621.97C649.472 632.865 646.654 645.765 641.188 655.563L640.307 655.697L637.457 651.252C643.906 645.331 645.736 639.211 646.795 630.836C647.049 628.822 647.159 626.059 647.889 624.162C648.473 622.643 649.831 622.229 651.156 621.468Z"></path>
    <path fill="#FEFEFE" d="M672.348 491.002C672.932 491.109 673.438 491.181 674.008 491.38C675.934 492.053 677.617 494.224 678.426 496.03C680.961 501.687 680.434 510.89 678.118 516.574C677.231 516.533 677.08 516.46 676.344 516.042C675.668 512.527 678.014 508.968 677.435 505.481C676.599 500.451 672.46 495.967 672.348 491.002Z"></path>
    <path fill="#FEFEFE" d="M558.978 401.043L559.173 402.034C557.569 406.099 555.6 413.104 552.599 416.194L551.506 415.816C550.312 414.244 549.17 412.767 549.557 410.662C550.344 406.384 555.534 403.131 558.978 401.043Z"></path>
    <path fill="#FEFEFE" d="M656.4 600.237C657.164 600.385 657.891 600.588 658.64 600.799C659.849 602.811 659.225 605.714 659.084 607.996C657.354 609.036 655.454 609.838 653.63 610.7C652.454 611.031 653.021 611.036 651.928 610.758C652.794 607.232 654.5 603.339 656.4 600.237Z"></path>
    <path fill="#FEFEFE" d="M678.023 520.463C678.865 520.423 680.032 520.248 680.846 520.424C681.563 520.579 681.959 520.89 682.273 521.531C683.469 523.974 681.65 527.991 680.923 530.45C680.246 529.877 680.335 530.092 680.021 529.414C679.336 527.936 677.218 523.758 677.271 522.293C677.296 521.634 677.772 521.073 678.023 520.463Z"></path>
    <path fill="#FEFEFE" d="M666.625 495.38C667.919 496.46 668.931 498.133 669.936 499.496C668.826 502.597 667.795 505.423 666.086 508.267L665.368 508.657L664.769 508.063C664.492 503.931 666.536 499.663 666.625 495.38Z"></path>
    <path fill="#FEFEFE" d="M671.774 502.887C672.269 503.378 672.533 504.035 672.655 504.715C673.128 507.346 672.042 510.427 670.491 512.538C669.641 513.695 669.547 513.813 668.196 514.039C667.272 513.514 666.732 513.394 666.181 512.461C666.885 511.3 667.576 510.155 668.421 509.089C669.849 507.289 670.68 505.757 671.491 503.637L671.774 502.887Z"></path>
    <path fill="#EAEAEA" d="M692.493 559.424L693.105 559.592C693.54 560.315 693.994 561.005 694.483 561.693C695.498 561.66 696.429 561.689 697.437 561.815C698.092 562.894 697.965 563.279 697.93 564.562L697.389 564.953C696.43 564.208 695.469 563.484 694.476 562.785L693.118 563.089C692.29 564.243 691.897 564.911 690.536 565.467C689.439 565.31 688.868 565.221 688.007 564.5C688.653 563.269 690.294 562.986 691.531 562.304L689.393 562.498L689.339 561.945L692.493 559.424Z"></path>
    <path fill="#C5CDCF" d="M683.196 501.34C683.268 501.474 683.351 501.602 683.41 501.742C685.002 505.563 684.318 513.993 682.683 517.607L682.295 517.176L682.501 515.299C683.029 510.659 683.077 506.004 683.196 501.34Z"></path>
    <path fill="#EAEAEA" d="M499.128 853.058C500.893 852.216 502.901 850.601 504.835 850.485C504.715 851.702 503.785 852.542 502.861 853.298C502.218 853.825 501.521 854.276 500.931 854.862C500.383 854.224 499.729 853.649 499.128 853.058Z"></path>
    <path fill="#FEFEFE" d="M509.104 858.931C510.749 860.502 510.763 863.283 510.994 865.427C509.994 864.731 509.102 863.846 508.687 862.665C508.165 861.181 508.566 860.331 509.104 858.931Z"></path>
    <path fill="#1D3D55" d="M338.055 336.676C339.114 331.245 341.505 325.617 344.616 321.04C348.533 315.277 353.992 312.008 360.793 310.827C373.435 308.631 391.096 311.927 401.587 319.492C412.548 327.397 407.72 335.929 409.727 345.274C409.789 345.562 410.066 346.562 410.179 346.746C411.703 349.217 426.094 353.305 429.567 355.542C431.251 356.626 432.549 357.656 432.982 359.685C432.627 360.522 432.656 360.688 431.885 361.277C427.192 364.861 407.446 361.246 401.602 360.467C400.53 366.809 400.599 370.933 402.469 377.11C400.831 378.89 399.163 380.684 397.848 382.721C395.024 387.093 392.012 396.069 387.455 398.479C383.319 400.667 377.709 397.938 373.683 396.551C372.609 399.286 371.874 402.133 371.075 404.958C382.027 420.625 381.297 438.391 382.771 456.492C383.193 461.67 384.052 466.844 384.846 471.979C389.38 471.946 393.155 473.526 397.532 474.149C401.152 474.664 404.844 474.723 408.421 475.499C410.814 477.509 412.306 483.042 414.12 485.942L414.576 486.664C413.9 488.479 413.244 490.12 413.179 492.079C413.041 496.205 410.283 501.234 407.881 504.582C400.398 515.007 391.617 502.927 386.851 504.871C386.138 505.162 384.32 508.423 383.481 509.185C380.378 512.007 374.873 512.493 370.897 513.112C369.917 521.395 365.698 527.786 363.929 535.673C362.732 541.017 363.179 546.64 361.755 551.975C360.576 556.392 357.902 560.722 357.415 565.236C357.237 566.881 356.959 568.515 356.719 570.152L354.262 564.539C354.094 564.38 353.918 564.229 353.757 564.062C351.228 561.424 353.014 556.581 349.594 554.615C348.042 554.733 347.078 555.206 345.738 555.914C347.579 558.127 351.86 562.666 351.657 565.579C365.554 594.553 375.375 627.745 377.226 659.879C377.343 661.904 377.414 675.939 377.723 676.429C378.126 677.067 378.799 677.319 379.444 677.596C381.416 682.866 381.618 691.715 381.505 697.405C380.433 698.917 379.462 700.362 378.568 701.985C377.888 703.218 377.539 703.587 376.293 704.28C376.025 704.428 375.77 704.6 375.507 704.759L374.907 705.116C373.862 710.284 376.659 726.783 378.329 732.15C384.588 738.333 395.073 750.435 402.74 754.082C407.413 756.305 412.69 756.632 417.392 758.984C418.997 761.734 420.931 764.42 419.993 767.755C419.241 770.429 417.085 772.234 414.705 773.484C406.729 777.673 386.757 777.869 377.674 777.016C373.216 776.597 356.36 773.14 352.376 771.775C350.084 770.991 346.57 769.802 345.433 767.462C343.202 762.871 349.597 746.586 351.642 742.266C352.418 740.625 353.367 739.361 354.604 738.041C351.545 727.092 348.128 716.172 343.773 705.663C340.314 704.553 338.993 703.604 337.3 700.354C335.107 696.142 332.556 687.057 333.671 682.361C334.018 680.896 335.514 679.595 335.821 678.268C336.067 677.208 330.614 653.682 331.535 646.838L333.708 646.343L328.833 641.283C325.961 644.348 323.349 647.656 320.45 650.707C314.484 656.985 307.88 662.664 301.213 668.174C300.515 668.751 295.357 672.788 295.34 673.305C295.302 674.479 296.506 674.18 295.733 675.77C294.105 679.122 284.538 688.98 280.879 689.605C278.723 689.973 276.336 688.112 274.6 687.016C267.567 694.164 259.372 700.906 251.604 707.267C251.476 715.879 250.801 725.671 252.38 734.126C253.494 740.094 256.632 741.612 261.323 744.758C261.892 745.94 262.444 747.141 262.866 748.385C263.742 750.961 263.933 754.069 262.581 756.524C261.428 758.618 259.353 759.842 257.086 760.42C250.145 762.188 237.894 758.967 231.995 755.023C224.048 749.711 220.738 737.737 215.231 730.159C212.479 726.372 208.675 723.34 206.277 719.295C204.929 717.02 204.438 714.865 203.98 712.311C205.557 710.551 207.353 709.012 209.106 707.431C212.152 713.622 216.563 719.112 220.005 725.095C224.062 732.146 227.223 740.32 232.2 746.764C233.697 748.701 235.77 750.202 237.96 751.264C243.273 753.842 253.54 756.506 259.191 754.221C260.317 753.766 260.83 753.306 261.345 752.236C259.937 751.21 250.539 751.404 247.961 751.006C243.822 750.367 239.085 749.059 235.902 746.241C230.293 741.275 226.795 731.691 223.002 725.215C219.177 718.683 215.224 712.42 210.755 706.307C234.293 695.268 236.762 688.681 251.725 668.777L248.998 664.311C252.02 646.488 265.621 644.713 274.703 631.886C276.533 629.302 275.23 627.154 276.935 624.056L277.562 623.026C278.137 618.666 279.617 614.156 280.703 609.882C283.517 598.814 286.205 587.436 290.761 576.932C285.978 564.434 282.74 552.947 281.116 539.64C273.068 541.538 265.108 542.559 256.832 542.046C239.175 540.951 221.766 534.014 206.343 525.711C202.103 523.428 196.946 520.791 193.833 517.015C188.992 511.142 191.942 488.392 192.978 480.12C195.138 462.879 198.963 445.873 202.298 428.832C206.115 409.326 208.739 388.235 216.669 369.868C219.697 362.854 224.059 356.101 230.187 351.412C246.642 338.82 294.492 340.934 315.943 339.314C320.818 338.946 324.635 336.389 329.258 335.888C332.031 335.587 335.286 336.317 338.055 336.676Z"></path>
    <path fill="#C5CDCF" d="M297.155 522.539C308.317 527.074 321.011 528.849 332.789 531.225C333.455 531.297 334.335 531.283 334.96 531.486C336.024 543.937 343.153 556.523 351.657 565.579C365.554 594.553 375.375 627.745 377.226 659.879C377.343 661.904 377.414 675.939 377.723 676.429C378.126 677.067 378.799 677.319 379.444 677.596C381.416 682.866 381.618 691.715 381.505 697.405C380.433 698.917 379.462 700.362 378.568 701.985C377.888 703.218 377.539 703.587 376.293 704.28C376.025 704.428 375.77 704.6 375.507 704.759L374.907 705.116C373.862 710.284 376.659 726.783 378.329 732.15C384.588 738.333 395.073 750.435 402.74 754.082C407.413 756.305 412.69 756.632 417.392 758.984C418.997 761.734 420.931 764.42 419.993 767.755C419.241 770.429 417.085 772.234 414.705 773.484C406.729 777.673 386.757 777.869 377.674 777.016C373.216 776.597 356.36 773.14 352.376 771.775C350.084 770.991 346.57 769.802 345.433 767.462C343.202 762.871 349.597 746.586 351.642 742.266C352.418 740.625 353.367 739.361 354.604 738.041C351.545 727.092 348.128 716.172 343.773 705.663C340.314 704.553 338.993 703.604 337.3 700.354C335.107 696.142 332.556 687.057 333.671 682.361C334.018 680.896 335.514 679.595 335.821 678.268C336.067 677.208 330.614 653.682 331.535 646.838L333.708 646.343C336.632 648.179 338.92 649.978 341.225 652.532C341.638 655.265 342.352 657.28 343.667 659.721C345.893 659.123 348.244 658.53 350.319 657.508C356.501 654.462 358.908 646.629 361.12 640.632C355.704 645.572 352.605 651.689 346.328 655.959L345.725 653.908C343.892 647.502 337.799 641.279 334.105 635.721C315.581 607.848 287.981 572.052 287.185 537.602C291.697 532.722 294.806 528.836 297.155 522.539Z"></path>
    <path fill="#2E485F" d="M332.789 531.225C333.455 531.297 334.335 531.283 334.96 531.486C336.024 543.937 343.153 556.523 351.657 565.579C365.554 594.553 375.375 627.745 377.226 659.879C377.343 661.904 377.414 675.939 377.723 676.429C378.126 677.067 378.799 677.319 379.444 677.596C381.416 682.866 381.618 691.715 381.505 697.405C380.433 698.917 379.462 700.362 378.568 701.985C377.888 703.218 377.539 703.587 376.293 704.28C376.025 704.428 375.77 704.6 375.507 704.759L374.907 705.116C373.862 710.284 376.659 726.783 378.329 732.15C384.588 738.333 395.073 750.435 402.74 754.082C407.413 756.305 412.69 756.632 417.392 758.984C418.997 761.734 420.931 764.42 419.993 767.755C419.241 770.429 417.085 772.234 414.705 773.484C406.729 777.673 386.757 777.869 377.674 777.016C373.216 776.597 356.36 773.14 352.376 771.775C350.084 770.991 346.57 769.802 345.433 767.462C343.202 762.871 349.597 746.586 351.642 742.266C352.418 740.625 353.367 739.361 354.604 738.041C351.545 727.092 348.128 716.172 343.773 705.663C340.314 704.553 338.993 703.604 337.3 700.354C335.107 696.142 332.556 687.057 333.671 682.361C334.018 680.896 335.514 679.595 335.821 678.268C336.067 677.208 330.614 653.682 331.535 646.838C332.296 646.99 333.445 647.134 334.112 647.576C338.812 650.689 340.354 673.086 340.932 678.801C347.809 678.936 354.689 678.974 361.568 678.917C361.479 671.841 360.658 637.81 363.52 634.226C365.546 638.5 364.509 671.052 364.896 678.614C367.456 678.501 370.025 678.159 372.574 677.899C372.442 639.458 363.108 601.607 345.353 567.512C342.508 561.926 338.57 556.959 335.675 551.397C332.525 545.345 330.676 537.91 332.789 531.225Z"></path>
    <path fill="#C5CDCF" d="M374.976 682.167C376.374 683.588 376.925 695.009 377.191 697.584C367.338 701.422 352.239 701.904 342.167 698.67C340.328 693.936 339.383 688.552 338.176 683.614C350.657 685.062 362.684 684.951 374.976 682.167Z"></path>
    <path fill="#FEFEFE" d="M368.981 705.806C370.468 707.748 372.531 728.844 373.258 733.221C371.209 736.049 369.046 739.754 365.79 741.313C364.894 741.742 363.835 741.848 362.916 741.45C360.865 740.562 360.131 738.899 359.454 736.898C357.104 726.443 353.35 716.42 350.031 706.251C356.481 706.783 362.555 706.469 368.981 705.806Z"></path>
    <path fill="#FEFEFE" d="M346.317 758.822C362.694 765.508 382.687 769.046 400.278 767.215C405.428 766.679 411.744 764.494 416.002 764.185L416.389 764.913L415.785 766.601C413.444 767.86 410.844 768.599 408.252 769.147C402.099 770.446 395.666 770.947 389.384 770.86C379.868 770.728 355.889 767.937 347.994 762.287C346.479 761.202 346.547 760.534 346.317 758.822Z"></path>
    <path fill="#FEFEFE" d="M386.381 751.049C385.754 752.477 384.875 754.099 384.599 755.636C384.401 756.737 384.584 756.94 385.157 757.819C385.792 757.952 386.02 758.029 386.719 758.022C387.877 758.009 388.944 757.431 389.663 756.569C389.904 755.482 389.807 754.979 389.4 753.981C388.987 752.969 388.759 752.149 388.583 751.072C389.484 750.033 389.679 750.208 391.071 750.068C394.525 752.096 390.575 756.512 392.007 759.406C393.297 759.687 393.388 759.442 394.556 758.954C395.802 757.675 395.996 756.449 396.389 754.733L396.546 754.021L397.198 754.131C397.818 754.905 398.513 755.701 399.019 756.554C399.694 757.694 399.652 758.356 399.376 759.599C398.807 760.106 398.307 760.506 397.556 760.714C391.101 762.493 380.331 757.876 374.847 754.569C373.467 753.737 372.598 753.077 372.232 751.489C373.23 749.301 377.241 740.786 378.643 739.819L379.104 740.138C378.816 741.106 378.498 742.047 378.171 743.002L378.521 743.646C380.62 743.569 382.127 742.125 384.035 741.417C384.289 742.773 378.299 747.134 377.218 748.88C376.435 750.142 376.322 751.018 376.658 752.436C378.038 753.967 379.55 754.653 381.604 754.766L382.173 753.986C382.354 752.646 382.451 751.524 382.199 750.183C382.177 750.068 381.999 749.19 381.995 749.04C381.955 747.675 382.597 747.261 383.425 746.249C384.857 746.289 385.759 746.095 386.964 746.907C387.268 748.339 386.751 749.671 386.381 751.049Z"></path>
    <path fill="#475B6C" d="M383.425 746.249C384.857 746.289 385.759 746.095 386.964 746.907C387.268 748.339 386.751 749.671 386.381 751.049C384.757 749.515 384.179 748.335 383.425 746.249Z"></path>
    <path fill="#1D3D55" d="M299.414 564.857C303.596 569.181 306.764 576.492 309.873 581.69C313.766 588.199 317.932 594.57 322.082 600.918C327.13 608.639 333.34 615.816 338.932 623.165C338.658 623.05 338.375 622.957 338.112 622.82C334.875 621.131 331.625 617.259 329.237 614.537C316.754 600.314 305.853 582.668 299.414 564.857Z"></path>
    <path fill="#C5CDCF" d="M291.583 592.593C300.055 609.786 312.104 624.74 321.179 641.485C311.714 650.764 302.133 661.007 291.763 669.219C282.103 663.082 273.673 656.69 266.299 647.846C270.133 644.209 273.895 640.518 277.269 636.441C281.088 641.358 285.341 645.92 289.978 650.075C287.173 641.991 281.951 635.284 278.573 627.488C278.072 626.333 277.586 625.134 276.935 624.056L277.562 623.026L277.826 623.381C283.755 631.516 286.633 639.702 295.683 645.276C292.003 638.365 286.995 632.197 283.098 625.374C285.558 614.415 288.012 603.25 291.583 592.593Z"></path>
    <path fill="#C5CDCF" d="M334.96 531.486C340.171 532.933 345.402 534.321 350.526 536.057C350.627 546.001 351.795 554.905 354.262 564.539C354.094 564.38 353.918 564.229 353.757 564.062C351.228 561.424 353.014 556.581 349.594 554.615C348.042 554.733 347.078 555.206 345.738 555.914C347.579 558.127 351.86 562.666 351.657 565.579C343.153 556.523 336.024 543.937 334.96 531.486Z"></path>
    <path fill="#C5CDCF" d="M320.173 408.563C321.245 408.403 322.338 408.288 323.423 408.407C325.468 408.632 327.36 410.001 328.612 411.576C332.755 416.791 333.417 425.177 332.724 431.576C331.03 447.21 317.448 466.855 304.619 475.483C301.583 477.525 297.938 478.947 294.689 480.637C291.117 482.495 288.027 484.785 284.888 487.29C292.504 485.766 300.56 482.101 308.325 482.127C311.62 482.139 315.072 483.186 318.287 483.834C327.043 485.599 340.541 488.971 349.202 488.166C348.935 491.683 348.381 495.143 347.838 498.625C347.189 501.894 346.67 505.176 346.161 508.469C331.636 509.188 296.387 509.879 283.192 505.648C280.517 504.791 278.359 503.545 277.115 500.934C273.91 494.211 276.73 483.305 278.994 476.607C283.467 463.37 301.683 425.931 310.579 415.631C313.342 412.432 316.453 410.421 320.173 408.563Z"></path>
    <path fill="#FEFEFE" d="M216.153 386.387C224.1 390.426 232.517 393.066 241.055 395.54C247.143 397.304 253.291 399.151 259.553 400.178C282.889 404.006 306.604 399.628 329.964 398.226L329.832 398.317C333.514 402.105 336.986 405.353 339.223 410.269C344.544 421.958 343.27 435.817 338.633 447.477C334.61 457.591 328.296 465.351 320.378 472.68C318.679 474.253 316.713 476.377 314.526 477.222C313.451 477.637 313.26 477.574 312.265 477.143C311.946 475.948 311.812 476.474 312.711 475.581C319.879 468.467 327.344 461.292 332.33 452.41C338.395 441.604 341.036 427.801 337.544 415.718C336.139 410.854 333.125 405.106 328.449 402.698C324.494 400.66 319.557 401.016 315.471 402.477C301.958 407.312 295.43 426.367 289.635 438.236C293.146 425.123 298.189 415.66 306.867 405.313C302.047 407.005 297.591 409.967 293.63 413.153C278.179 425.578 275.788 443.122 272.939 461.586C271.791 469.024 270.378 476.45 269.535 483.928C269.689 485.561 270.058 487.191 269.074 488.634L268.754 488.461C268.233 491.312 267.991 494.002 267.929 496.898L266.712 495.026C264.754 505.12 263.994 515.042 260.706 524.87C271.513 524.356 278.234 524.256 287.895 518.726L288.155 519.364C286.269 522.563 282.503 524.4 279 525.244C271.001 527.171 262.598 525.432 255.273 529.642C262.631 530.083 270.496 530.693 277.791 529.321C280.612 528.791 285.628 525.902 287.972 525.991C287.877 527.185 287.175 527.75 286.303 528.511C278.974 534.913 258.046 532.325 248.813 531.309C234.22 529.702 220.726 526.35 207.509 519.811C204.568 518.356 200.741 516.525 198.551 513.999C197.724 513.045 197.507 512.234 197.603 510.989C197.624 510.717 197.678 510.448 197.715 510.178C201.681 512.152 205.118 515.096 208.882 517.422C214.786 520.549 221.298 523.322 227.671 525.351C235.587 527.87 247.733 530.771 255.449 526.582C258.201 525.087 259.492 522.386 260.301 519.46C262.83 510.323 263.701 500.418 265.326 491.068C268.946 470.242 272.384 449.504 276.608 428.784C277.29 425.441 281.42 408.198 280.229 406.122C279.228 405.558 279.332 405.357 278.144 405.635C277.122 406.601 276.518 407.483 276.073 408.834C275.22 411.426 274.977 414.337 274.452 417.02L270.724 435.809C262.874 438.199 255.773 437.151 247.783 436.322C248.328 425.376 251.402 415.076 254.753 404.729C253.896 405.611 253.063 406.518 252.258 407.448C245.39 415.491 244.631 425.692 245.357 435.742C237.424 433.383 229.958 431.446 222.365 427.948C222.412 415.949 225.569 406.216 229.804 395.109C229.111 395.765 228.432 396.436 227.769 397.123C219.631 405.596 218.769 415.042 219.042 426.215C215.881 423.872 212.653 421.782 209.284 419.751C211.163 408.549 213.454 397.42 216.153 386.387Z"></path>
    <path fill="#475B6C" d="M269.535 483.928C269.689 485.561 270.058 487.191 269.074 488.634L268.754 488.461C268.233 491.312 267.991 494.002 267.929 496.898L266.712 495.026C267.249 491.672 267.547 486.724 269.535 483.928Z"></path>
    <path fill="#1D3D55" d="M306.365 402.746L306.699 403.126C295.835 409.004 287.579 413.178 281.074 424.117L280.621 423.769C281.581 417.365 282.984 411.033 284.294 404.694C291.653 404.171 299.011 403.369 306.365 402.746Z"></path>
    <path fill="#FEFEFE" d="M208.73 425.659C209.415 426.265 210.077 426.841 210.816 427.382C227.763 440.029 249.051 445.398 269.969 442.301C265.563 453.411 263.759 468.332 262.192 480.205C254.721 482.534 246.653 482.58 238.973 481.437C238.224 469.402 239.655 458.196 244.135 447.021C241.165 449.939 239.113 452.689 237.307 456.426C234.223 464.582 234.749 472.515 235.819 481.02C228.249 478.889 221.698 476.541 214.977 472.411C215.804 460.645 217.871 449.864 220.79 438.46L220.349 439.075C212.148 450.61 210.602 458.275 212.997 472.213C209.28 469.582 205.699 466.901 202.213 463.966C203.562 451.095 207.305 438.513 208.73 425.659Z"></path>
    <path fill="#FEFEFE" d="M200.703 470.744C216.036 482.383 238.247 490.734 257.746 487.963C259.129 487.766 260.501 487.485 261.867 487.196C260.557 494.475 258.009 516.658 252.357 520.711C248.471 523.497 241.536 523.263 236.91 523.155C232.742 512.612 234.19 500.543 238.487 490.244C232.855 495.741 229.301 501.719 229.271 509.865C229.251 515.069 230.838 518.809 233.419 523.143C228.212 522.332 215.783 520.109 212.6 515.464C209.464 510.886 212.21 495.818 213.699 490.605C214.233 488.7 214.847 486.818 215.54 484.965C210.447 491.204 206.403 497.886 207.121 506.32C207.409 509.702 208.382 512.706 209.762 515.783C209.542 516.742 209.676 516.7 208.882 517.422C205.118 515.096 201.681 512.152 197.715 510.178L198.544 507.835C195.194 501.056 199.886 478.964 200.703 470.744Z"></path>
    <path fill="#2E485F" d="M198.544 507.835C201.226 510.014 206.421 515.322 209.762 515.783C209.542 516.742 209.676 516.7 208.882 517.422C205.118 515.096 201.681 512.152 197.715 510.178L198.544 507.835Z"></path>
    <path fill="#C5CDCF" d="M341.422 406.768C342.359 407.323 342.076 407.082 342.768 407.724C349.924 414.443 357.969 420.147 366.678 424.677C371.16 442.183 372.68 458.371 370.337 476.35C364.891 479.321 360.463 483.912 355.02 486.892L354.408 485.544C352.97 484.252 351.168 483.915 349.352 483.401C339.929 481.581 330.402 480.139 320.953 478.425C322.149 477.651 323.327 476.85 324.487 476.023C336.661 467.251 344.978 452.827 347.288 438.094C349.051 426.849 348.282 416.165 341.422 406.768Z"></path>
    <path fill="#FEFEFE" d="M298.467 346.716C302.717 346.378 305.571 347.474 308.946 350.137C319.547 358.498 322.594 371.996 323.875 384.691C315.085 385.886 306.268 386.879 297.431 387.67C297.658 381.784 297.347 376.451 295.373 370.852C292.614 363.028 285.917 353.513 278.164 350.088C275.777 349.033 272.183 348.164 269.666 349.119C273.441 351.541 277.195 353.657 280.702 356.489C289.813 365.692 292.694 375.743 296.105 387.92C291.535 388.215 287.047 388.7 282.532 389.472C281.394 382.933 279.578 376.351 276.713 370.35C271.532 359.499 263.21 352.146 251.914 348.177C257.194 347.897 262.465 348.44 267.748 348.279C277.977 347.966 288.239 347.21 298.467 346.716Z"></path>
    <path fill="#FEFEFE" d="M355.632 349.337C359.386 350.393 388.441 358.634 389.942 359.622C388.7 361.109 386.84 361.16 385.621 362.671C385.904 363.751 386.112 363.757 387.037 364.314C387.706 364.717 388.36 364.816 389.117 364.936C392.118 364.015 393.244 358.934 396.318 360.032C396.699 360.168 397.213 360.573 397.547 360.817C397.432 362.141 397.141 363.161 396.733 364.428C395.19 369.222 398.286 373.564 397.076 377.732C394.669 378.677 389.442 376.773 387.904 377.938C387.774 379.234 387.85 379.228 388.593 380.313C390.434 381.275 392.23 381.741 394.239 382.244L393.952 382.868L392.258 383.314C391.873 384.307 391.587 386.435 391.068 387.233C389.099 390.261 387.986 389.13 386.231 393.692C386.139 393.931 386.037 394.166 385.94 394.403C372.689 391.996 365.305 382.76 354.172 378.046C357.803 384.397 363.394 390.025 369.202 394.436C367.213 398.495 365.635 402.545 364.22 406.833C356.373 402.272 348.404 397.235 341.404 391.44C343.525 387.703 345.221 384.292 346.212 380.065C347.908 380.167 350.119 380.59 351.61 379.711C352.375 378.407 352.556 377.288 352.78 375.827L352.392 372.937C352.914 372.455 353.271 371.824 354.037 371.851C356.831 371.951 359.436 375.445 362.557 374.532C362.156 372.371 356.132 364.24 354.252 362.533C354.047 362.346 353.848 362.154 353.645 361.965L353.278 361.629C352.726 359.125 351.661 355.71 352.683 353.291C353.865 352.778 353.885 352.672 355.101 353.044C356.144 354.794 355.452 357.417 357.209 358.159C359.115 357.928 361.113 357.467 362.489 356.015C363.052 355.42 362.814 355.192 362.727 354.455C360.878 352.027 358.308 350.7 355.632 349.337Z"></path>
    <path fill="#1D3D55" d="M378.178 362.854C379.861 362.997 380.943 363.138 382.293 364.238C383.772 365.442 384.185 366.623 384.312 368.432C382.585 368.281 380.464 367.815 379.222 366.516C378.117 365.36 378.139 364.32 378.178 362.854Z"></path>
    <path fill="#1D3D55" d="M383.961 382.298C386.083 383.242 389.62 384.601 390.697 386.759L389.446 388.164C388.41 387.6 387.739 386.823 386.581 386.356C385.534 385.935 384.516 385.511 383.488 385.044C383.021 383.728 383.361 383.58 383.961 382.298Z"></path>
    <path fill="#C5CDCF" d="M364.29 316.198C375.188 315.518 391.129 317.792 399.611 325.338C403.892 329.146 404.226 336.078 404.599 341.429C400.146 340.297 395.631 339.77 391.056 339.492C382.77 339.476 374.243 340.204 366.08 338.536C358.763 337.04 350.713 334.826 346.396 328.308C347.54 326.378 348.66 324.46 350.092 322.725C354.053 317.926 358.382 316.786 364.29 316.198Z"></path>
    <path fill="#FEFEFE" d="M241.738 351.121C245.248 351.148 248.476 351.824 251.673 353.299C261.957 358.042 269.427 368.103 273.194 378.549C274.371 381.813 277.81 390.145 276.303 393.39C275.019 393.514 274.22 393.561 272.956 393.188C271.315 389.815 270.956 385.368 270.078 381.699C269.321 378.534 268.277 375.5 267.168 372.444C265.388 378.225 261.747 383.228 260.128 389.078C259.701 390.62 259.579 391.926 258.339 392.991L257.196 392.842L256.697 391.961C257.356 384.428 261.919 376.589 265.224 369.877C264.401 368.332 263.295 367.005 262.223 365.629C260.307 370.008 258.477 374.424 256.732 378.874C255.043 383.024 254.116 387.361 252.456 391.514C251.332 392.123 251.518 391.948 250.386 391.65C249.081 387.709 255.119 373.384 256.927 368.968C257.902 366.586 257.862 365.745 260.313 364.718L260.582 363.997C258.291 361.233 255.194 359.319 251.874 358.004C246.954 356.055 241.745 355.888 236.889 358.158C226.804 362.872 225.869 373.039 222.304 382.015C221.83 383.209 221.921 383.391 220.676 383.883C219.374 383.603 218.586 383.533 217.617 382.551C216.793 378.015 221.893 369.615 224.158 365.728C228.271 358.667 233.63 353.296 241.738 351.121Z"></path>
    <path fill="#C5CDCF" d="M261.467 650.375C263.571 652.46 265.3 654.938 267.405 657.064C274.769 664.5 282.848 669.516 292.191 674.073L283.67 680.953L279.818 683.753C270.16 678.956 260.583 671.946 253.807 663.516C255.324 658.815 258.754 654.478 261.467 650.375Z"></path>
    <path fill="#FEFEFE" d="M254.93 673.792C259.82 676.578 264.272 681.082 269.132 684.203C262.408 691.047 254.97 697.452 247.77 703.789C247.257 704.069 246.473 704.568 245.872 704.688C242.324 705.4 237.561 701.268 234.939 699.159C240.74 690.052 247.717 681.797 254.93 673.792Z"></path>
    <path fill="#FEFEFE" d="M313.842 345.717C316.239 345.449 318.517 345.663 320.905 345.872C322.848 347.479 324.845 349.11 326.633 350.89C334.96 359.181 339.373 369.941 339.465 381.595C336.609 381.541 333.857 381.717 331.016 381.973L327.189 382.991C326.98 376.883 326.069 371.029 323.732 365.343C320.012 356.291 314.113 350.064 305.08 346.287L313.842 345.717Z"></path>
    <path fill="#FEFEFE" d="M369.816 483.481C370.906 484.882 371.093 487.465 372.75 488.463C374.468 489.499 376.465 488.98 377.469 490.965C377.235 492.192 376.833 493.62 377.055 494.863C377.315 496.323 377.785 497.733 377.964 499.22C378.188 501.079 377.888 503.74 376.436 505.087C373.819 507.514 367.767 507.357 364.324 507.55C360.273 507.669 356.259 507.626 352.208 507.496C352.266 505.313 352.215 502.964 352.659 500.823C354.308 492.873 363.603 487.644 369.816 483.481Z"></path>
    <path fill="#C5CDCF" d="M344.287 333.215C360.005 347.278 384.413 342.499 403.342 346.315C408.073 353.921 414.513 354.835 422.38 357.319C417.296 357.575 411.691 356.594 406.626 356.006C398.987 355.12 346.44 342.928 343.879 339.698C343.293 337.507 343.891 335.401 344.287 333.215Z"></path>
    <path fill="#FEFEFE" d="M228.758 719.881C226.878 719.304 225.743 719.226 224.414 717.741L224.705 717.067C229.619 716.394 238.415 722.248 242.668 717.645C242.705 717.492 242.739 717.338 242.778 717.185C243.105 715.884 243.429 714.708 244.594 713.876C245.504 713.227 245.921 713.077 246.969 713.316C246.681 715.872 243.098 716.639 244.196 719.442C245.439 719.451 245.754 719.111 246.821 718.533C247.648 719.599 248.28 732.942 247.986 735.06C247.885 735.789 247.665 736.151 247.018 736.583C246.65 736.83 245.738 737.214 245.311 737.403L245.448 737.728C244.48 737.871 243.203 738.098 242.224 737.908C240.702 737.612 240.063 736.746 239.14 735.626L239.909 734.884C234.589 731.153 232.112 725.308 228.758 719.881Z"></path>
    <path fill="#1D3D55" d="M242.955 727.206C244.122 727.081 244.964 726.897 246.077 727.361C246.703 728.419 246.87 728.376 246.778 729.675C245.904 729.624 245.029 729.589 244.154 729.568C243.645 730.115 243.054 730.656 242.641 731.279C242.395 731.185 242.154 731.078 241.904 730.998C240.867 730.668 240.353 730.754 239.319 730.955L236.564 729.838L236.663 728.565C238.776 727.709 240.695 727.43 242.955 727.206Z"></path>
    <path fill="#1D3D55" d="M242.641 731.279C244.213 733.175 244.66 735.087 245.311 737.403L245.448 737.728C244.48 737.871 243.203 738.098 242.224 737.908C240.702 737.612 240.063 736.746 239.14 735.626L239.909 734.884C240.838 733.696 241.749 732.494 242.641 731.279Z"></path>
    <path fill="#1D3D55" d="M234.084 721.246C235.735 721.294 237.65 721.248 238.977 722.335C239.415 724.014 238.988 724.375 238.292 725.917C236.585 726.167 235.494 725.96 234.102 724.944C233.583 723.357 233.771 722.848 234.084 721.246Z"></path>
    <path fill="#1D3D55" d="M242.376 721.28C243.901 721.379 244.577 721.282 245.87 722.139C246.281 723.526 245.713 724.545 245.211 725.819C244.186 726.06 243.73 726.031 242.734 725.692C241.846 724.373 242.246 722.784 242.376 721.28Z"></path>
    <path fill="#FEFEFE" d="M310.448 520.14C307.778 519.602 304.931 518.846 302.371 517.918C300.523 517.248 297.773 516.287 296.897 514.399L297.334 513.767C299.75 513.291 304.892 515.842 307.579 516.42C324.149 519.982 345.1 521.415 360.073 530.175C357.642 536.428 357.88 545.364 356.871 552.133C356.209 545 356.812 538.64 357.812 531.593C342.942 525.593 326.119 523.197 310.448 520.14Z"></path>
    <path fill="#FEFEFE" d="M348.009 512.578C351.201 511.651 358.626 512.839 362.272 513.021L357.928 524.016C355.431 522.773 352.814 521.894 350.19 520.963C343.436 518.774 336.503 517.187 329.613 515.495C335.881 514.546 341.937 514.719 348.009 512.578Z"></path>
    <path fill="#FEFEFE" d="M330.103 386.822C330.674 386.868 331.516 386.869 332.086 387.031C334.589 387.743 333.502 392.907 334.544 394.932C335.808 394.882 337.345 394.714 338.461 395.402C341.45 397.243 344.331 400.652 347.11 402.91C350.543 405.7 354.398 408.909 358.284 411.044C360.413 412.213 362.685 413.054 364.833 414.242C365.81 415.445 365.52 417.4 365.54 418.885C365.392 418.91 365.245 418.954 365.095 418.961C363.732 419.027 361.763 417.602 360.609 416.95C355.69 414.117 350.991 410.915 346.554 407.374C343.516 404.966 338.314 399.586 335.03 398.127C333.825 397.592 333.178 398.195 331.966 397.222C332.997 393.59 331.294 390.236 330.103 386.822Z"></path>
    <path fill="#EAEAEA" d="M343.812 345.012C347.778 346.598 351.822 347.951 355.863 349.328C353.724 349.352 351.958 349.182 350.291 350.752C348.683 352.266 347.949 355.083 348.029 357.22C348.15 360.442 349.551 363.272 351.944 365.4C352.857 366.212 353.591 366.952 354.356 367.904L354.183 368.607C353.094 368.916 353.659 368.918 352.491 368.506C351.929 367.232 351.53 366.369 350.55 365.346L349.673 365.433C349.553 365.602 349.416 365.761 349.311 365.941C348.649 367.078 348.669 368.369 349.123 369.588C349.757 371.288 350.749 372.227 352.392 372.937L352.78 375.827L346.831 375.602C346.358 370.877 345.24 366.204 344.592 361.493C343.834 355.988 343.74 350.558 343.812 345.012Z"></path>
    <path fill="#FEFEFE" d="M238.977 362.834C239.734 362.992 239.379 362.81 239.98 363.49C237.719 372.132 234.702 376.66 233.286 386.175C231.749 386.442 230.587 385.951 229.111 385.543L227.738 385.025C227.231 383.961 227.209 383.583 227.411 382.372C228.468 376.039 233.719 366.497 238.977 362.834Z"></path>
    <path fill="#FEFEFE" d="M368.624 409.876C370.274 414.51 372.036 419.134 373.345 423.877C375.641 432.19 380.96 463.841 376.475 471.754L375.802 471.082C376 466.812 376.561 462.48 376.548 458.21C376.526 451.096 375.21 443.271 373.884 436.314C372.806 430.66 367.429 414.424 368.624 409.876Z"></path>
    <path fill="#FEFEFE" d="M252.172 363.134C253.018 363.292 253.851 363.482 254.69 363.673C254.836 363.93 255.058 364.157 255.126 364.445C255.294 365.146 249.705 378.311 248.98 380.394C247.785 383.832 246.87 387.26 246.119 390.819C245.066 390.451 244.252 390.054 243.32 389.441C242.415 384.241 249.656 368.316 252.172 363.134Z"></path>
    <path fill="#FEFEFE" d="M244.396 361.345C245.949 361.426 247.433 361.314 248.741 362.269C244.227 370.197 241.688 378.505 239.888 387.41L239.38 388.34C238.238 388.237 238.134 388.13 237.23 387.406C236.002 381.787 242.12 367.037 244.396 361.345Z"></path>
    <path fill="#EAEAEA" d="M324.941 341.688C329.271 341.123 333.788 341.439 338.148 341.51C338.077 345.738 338.407 349.953 338.676 354.169C335.247 349.849 325.97 343.365 324.941 341.688Z"></path>
    <path fill="#FEFEFE" d="M379.647 476.116C382.317 475.936 386.277 475.514 388.775 476.436C390.119 476.933 390.248 477.192 390.896 478.374C390.797 479.404 390.926 480.353 390.25 481.158C387.72 480.517 385.893 480.224 383.266 480.592C383.045 480.623 382.825 480.661 382.605 480.696C380.493 481.606 379.021 483.136 377.359 484.677C376.03 484.89 375.939 485.187 374.758 484.414C374.743 484.088 374.69 483.761 374.713 483.435C374.883 481.029 377.891 477.612 379.647 476.116Z"></path>
    <path fill="#FEFEFE" d="M407.705 485.257C407.856 485.215 408.002 485.143 408.158 485.132C409.324 485.051 409.51 485.3 410.234 486.089C410.366 487.436 410.474 487.904 409.582 489.058C407.605 491.616 403.7 491.301 400.841 491.353C399.566 491.421 398.675 491.534 397.468 491.036C396.601 489.339 397.08 487.424 397.214 485.54C400.74 485.596 404.189 485.523 407.705 485.257Z"></path>
    <path fill="#FEFEFE" d="M408.178 494.286L408.694 494.223L409.052 494.963C408.719 496.285 408.365 497.105 407.276 497.991C404.732 500.06 401.115 499.457 398.118 499.229C397.318 498.772 396.8 498.06 396.193 497.377L396.326 496.246C398.909 493.817 404.694 494.432 408.178 494.286Z"></path>
    <path fill="#FEFEFE" d="M393.991 478.392C396.749 477.656 400.146 477.665 402.983 477.904C404.661 478.046 406.109 478.275 407.254 479.601C407.456 480.995 407.38 481.148 406.778 482.434C403.645 482.544 400.508 482.374 397.376 482.265C396.76 480.655 396.733 479.943 395.272 478.967L394.39 479.174L393.991 478.392Z"></path>
    <path fill="#FEFEFE" d="M266.517 381.273C267.957 384.785 268.908 389.38 267.955 393.099C266.759 394.13 265.92 393.783 264.377 393.747C263.808 393.666 263.33 393.445 262.797 393.238C262.198 389.857 265.168 384.469 266.517 381.273Z"></path>
    <path fill="#FEFEFE" d="M392.113 483.199C392.467 483.294 392.863 483.722 393.148 483.956C393.454 485.133 393.608 485.409 393.244 486.547C391.424 487.526 388.899 487.098 386.877 487.017C386.288 488.386 385.888 489.86 384.564 490.678L383.358 489.922C382.373 489.139 382.526 489.188 382.177 488.094L381.944 488.554L381.59 487.699L383.095 487.408L383.555 486.712L382.626 485.705C385.114 483.02 388.683 485.049 391.744 483.413C391.87 483.346 391.99 483.271 392.113 483.199Z"></path>
    <path fill="#FEFEFE" d="M245.448 737.728C246.213 737.666 247.306 737.641 248.04 737.846C249.326 738.204 249.523 738.529 250.195 739.58L249.806 740.484C248.394 741.248 247.156 741.344 245.58 741.219C243.284 741.036 240.196 740.13 238.843 738.086C238.169 737.067 238.081 736.619 238.386 735.492L239.14 735.626C240.063 736.746 240.702 737.612 242.224 737.908C243.203 738.098 244.48 737.871 245.448 737.728Z"></path>
    <path fill="#FEFEFE" d="M267.929 496.898C267.991 494.002 268.233 491.312 268.754 488.461L269.074 488.634C269.033 494.35 268.931 500.935 273.092 505.406C274.339 506.746 275.92 507.872 277.365 508.99C273.745 506.951 269.794 505.013 268.54 500.7C268.184 499.476 268.069 498.162 267.929 496.898Z"></path>
    <path fill="#FEFEFE" d="M396.058 501.246C398.513 502.204 402.514 501.894 404.344 503.277L403.897 504.778C401.621 505.183 399.171 505.714 397.016 504.677C395.931 503.296 396.094 502.947 396.058 501.246Z"></path>
    <path fill="#EAEAEA" d="M360.073 530.175C361.585 525.325 363.134 518.251 365.909 514.093C365.568 517.939 363.63 527.003 360.73 529.654C360.524 529.843 360.292 530.001 360.073 530.175Z"></path>
    <path fill="#FEFEFE" d="M241.32 710.857C242.179 711.076 242.709 711.166 243.36 711.817C243.945 712.403 243.733 712.236 243.749 713.238C242.466 713.839 241.648 713.86 240.276 713.789C239.601 713.754 239.457 713.95 238.88 714.273C238.015 714.733 237.15 715.058 236.228 715.387L235.972 714.939C237.614 713.172 239.274 712.087 241.32 710.857Z"></path>
    <path fill="#FEFEFE" d="M391.084 499.222C391.825 499.086 392.068 499.142 392.778 499.315L393.047 500.502C392.475 501.626 392.41 501.729 391.311 502.337L389.522 501.753C388.823 501.413 389.212 501.549 388.168 501.397C387.881 501.355 387.594 501.32 387.307 501.281L386.661 500.347C387.772 499.323 389.64 499.393 391.084 499.222Z"></path>
    <path fill="#FEFEFE" d="M392.884 490.93C393.532 491.86 393.68 492.638 393.354 493.75C392.851 495.472 392.081 495.861 390.554 496.599C390.129 496.045 389.951 495.626 389.695 494.986C390.072 493.2 391.599 492.117 392.884 490.93Z"></path>
    <path fill="#475B6C" d="M366.481 587.163C373.136 589.306 380.004 593.918 386.111 597.342C398.321 604.172 410.477 611.097 422.579 618.117C442.566 629.659 462.661 641.014 482.861 652.18C505.415 664.572 528.641 676.934 552.603 686.386C550.595 691.333 548.334 696.174 546.342 701.135C545.458 703.715 544.445 706.245 543.45 708.784C535.495 705.855 527.032 704.065 518.88 701.734C504.141 697.443 489.477 692.898 474.896 688.099C450.089 679.786 425.681 670.221 401.011 661.491C394.522 659.195 388.147 656.643 381.584 654.555C381.106 638.611 377.621 623.698 372.854 608.557C370.638 601.52 367.856 594.417 366.481 587.163Z"></path>
    <path fill="#475B6C" d="M215.852 537.018C234.95 546.467 255.24 550.028 276.282 547.254C277.009 557.266 280.573 567.239 283.648 576.733C282.485 579.776 281.744 582.968 280.913 586.115C280.617 587.781 280.042 589.33 279.486 590.924C263.68 581.975 222.499 553.248 215.852 537.018Z"></path>
    <path fill="#2E485F" d="M562.063 893.221C598.896 890.981 637.104 895.422 673.72 899.05C663.31 900.595 652.63 900.467 642.124 900.814C625.394 901.635 608.517 901.56 591.766 901.664C572.987 901.779 554.125 902.057 535.391 900.589C537.216 900.23 539.049 899.88 540.861 899.459C542.299 899.124 543.214 898.79 543.999 897.522C543.222 896.257 541.019 895.502 539.681 894.847C546.578 892.852 554.873 893.459 562.063 893.221Z"></path>
    <path fill="#2E485F" d="M542.282 589.396C542.929 590.032 543.241 590.948 543.654 591.754C547.377 599.016 555.956 603.579 563.466 606.031C551.574 614.096 545.361 615.949 531.039 613.34C528.769 612.895 526.487 612.22 524.277 611.541C520.956 610.52 510.946 607.615 509.241 604.449C511.495 602.52 515.975 603.832 518.793 603.733C528.773 603.385 535.849 596.067 542.282 589.396Z"></path>
    <path fill="#2E485F" d="M449.626 892.223C458.492 891.726 475.838 890.891 483.985 893.601C490.322 895.708 494.619 898.862 501.761 900.654C490.09 901.349 478.192 901.131 466.498 901.204C447.987 900.709 430.833 899.375 412.648 895.847C425.082 894.7 437.09 892.694 449.626 892.223Z"></path>
    <path fill="#2E485F" d="M293.938 765.23C309.959 765.202 327.573 765.152 342.962 769.982C328.4 773.574 311.633 772.53 296.689 772.482C280.426 772.242 263.207 772.845 247.248 769.559C262.005 765.926 278.795 765.653 293.938 765.23Z"></path>
    <path fill="#2E485F" d="M133.779 524.786C139.68 504.45 149.749 489.13 168.466 478.75C174.317 475.506 180.43 472.722 186.506 469.932L185.926 476.145C164.323 485.367 144.486 503.009 135.548 525.004L133.779 524.786Z"></path>
    <path fill="#2E485F" d="M713.669 807.909C717.274 809.077 721.359 811.938 724.732 813.773C731.626 817.551 738.583 821.211 745.601 824.752C766.296 835.241 787.289 844.65 808.286 854.475C802.578 854.393 793.326 850.212 787.875 848.232C758.6 837.598 737.45 829.133 713.669 807.909Z"></path>
    <path fill="#2E485F" d="M128.569 578.559C136.548 592.576 145.074 607.051 154.619 620.082C162.557 630.919 170.855 641.674 179.238 652.174C183.149 657.072 187.426 661.826 191.155 666.849L190.48 667.296C167.248 642.96 151.549 629.254 136.542 597.59C133.668 591.526 130.334 585.042 128.569 578.559Z"></path>
    <path fill="#2E485F" d="M222.613 618.041C216.02 611.591 209.812 604.763 203.304 598.227C196.273 591.165 188.8 584.3 182.412 576.647C176.685 569.787 171.667 562.258 166.627 554.89C165.134 552.708 161.835 549.252 161.251 546.808C166.364 550.974 170.867 557.004 175.418 561.849C192.851 580.402 209.885 599.126 225.347 619.389L222.613 618.041Z"></path>
    <path fill="#2E485F" d="M471.225 767.224C443.899 755.899 413.348 742.457 393.67 719.484C405.115 726.927 416.337 734.693 428.058 741.707C442.648 750.437 457.666 758.24 472.513 766.492L471.225 767.224Z"></path>
    <path fill="#2E485F" d="M563.059 816.896C567.112 817.813 590.977 831.423 596.702 834.403C613.908 843.357 631.747 852.248 649.729 859.532C644.471 859.287 637.729 856.009 632.762 854.129C607.928 844.73 583.544 834.121 563.059 816.896Z"></path>
    <path fill="#2E485F" d="M340.729 804.411C344.085 805.208 369.288 822.817 374.52 826.148C387.025 834.109 399.692 842.098 412.529 849.505C400.975 847.979 368.596 827.425 358.64 819.911C352.305 815.131 346.556 809.785 340.729 804.411Z"></path>
    <path fill="#1D3D55" d="M274.302 722.405C282.281 724.59 294.454 733.934 300.94 739.576C294.17 737.632 280.251 726.701 274.302 722.405Z"></path>
    <path fill="#2E485F" d="M133.779 524.786L135.548 525.004C134.602 527.707 133.632 530.403 132.638 533.089L133.779 524.786Z"></path>
    <path fill="#8A9296" d="M222.613 618.041L225.347 619.389C227.422 621.517 229.02 623.674 230.648 626.153L222.613 618.041Z"></path>
    <path fill="#475B6C" d="M472.513 766.492C474.719 767.69 476.95 768.857 479.128 770.102C476.415 769.285 473.841 768.308 471.225 767.224L472.513 766.492Z"></path>
    <path fill="#8A9296" d="M191.155 666.849C192.204 667.942 193.063 668.804 193.64 670.241C192.239 669.784 191.439 668.4 190.48 667.296L191.155 666.849Z"></path>
    <path fill="#FEFEFE" d="M492.203 43.7192C547.299 41.6286 602.353 48.8374 655.053 65.0427C725.996 87.7434 790.522 126.993 843.303 179.551C869.423 206.141 892.646 235.428 912.583 266.921C921.593 281.156 929.181 296.338 937.041 311.227C931.276 304.879 897.015 268.358 892.407 266.686C887.761 266.945 884.312 270.486 880.291 272.527L879.664 272.84C872.12 259.238 861.463 247.435 851.414 235.651C844.91 228.051 838.542 220.334 832.314 212.505C826.954 205.828 818.044 192.536 812.453 187.419C806.558 182.025 798.134 178.177 791.379 173.825C783.436 168.709 772.691 160.171 764.412 156.584C757.646 161.382 751.395 167.471 745.114 172.895C731.426 184.633 717.904 196.563 704.552 208.681C679.162 186.449 657.478 159.559 630.76 138.873C628.09 136.806 624.245 134.036 620.682 134.64C614.07 135.76 609.236 144.828 605.723 149.946C596.084 140.212 586.613 130.313 577.315 120.253C570.657 112.998 564.22 105.452 557.212 98.5315C548.645 90.2004 539.606 82.3688 530.14 75.0755C526.072 72.2548 520.591 68.105 515.692 67.2206C513.488 66.8228 512.063 67.4283 510.352 68.7578C503.864 73.8007 494.491 87.0948 488.932 93.9306C477.232 108.035 465.665 122.25 454.233 136.573C448.498 143.891 442.219 153.818 434.598 159.137C432.872 156.459 431.193 153.562 429.227 151.059C427.293 148.597 425.111 146.699 421.901 146.363C419.329 146.094 417.074 146.765 414.957 148.225C409.645 151.89 405.105 157.626 400.626 162.286C393.811 169.339 386.944 176.342 380.024 183.292C374.951 188.414 369.918 193.865 364.283 198.374L363.666 198.864C353.674 194.01 345.276 180.68 337.139 172.823C327.534 163.548 316.207 154.402 304.939 147.292C283.862 158.509 255.763 189.289 239.977 207.549C233.122 215.478 224.655 227.503 216.029 232.966C212.796 232.718 203.359 229.843 201.028 230.874C198.451 232.013 194.715 237.583 192.648 239.869C186.551 246.611 179.819 253.293 172.67 258.915C155.252 272.613 136.394 283.596 117.419 294.93C107.464 300.876 97.3567 307.637 86.86 312.565C106.915 269.958 133.377 230.673 165.325 196.077C236.488 118.049 331.756 66.1319 435.901 48.6263C454.466 45.688 473.437 44.4352 492.203 43.7192Z"></path>
    <path fill="#C5CDCF" d="M302.586 159.297C302.352 164.038 301.531 169.857 302.641 174.509C304.132 180.76 314.401 191.211 308.742 196.65C302.535 202.618 290.679 207.519 290.202 217.466C289.829 225.257 297.387 230.149 301.323 236.034C298.614 242.17 293.864 247.407 288.679 251.591C277.884 260.301 261.243 267.72 248.983 275.363C234.837 284.181 222.115 294.491 208.491 304.002C233.351 276.724 248.508 256.93 262.883 222.491C266.114 214.75 269.952 206.024 270.949 197.686L270.615 197.181L270.376 197.486C269.479 195.433 269.467 192.501 267.863 190.917C276.812 180.038 290.754 166.749 302.586 159.297Z"></path>
    <path fill="#FEFEFE" d="M923.822 503.141C929.081 504.737 934.015 505.791 939.497 506.278L939.632 506.725L937.295 508.484C935.092 509.886 932.727 510.892 930.35 511.957C927.476 509.457 924.679 506.995 923.822 503.141Z"></path>
</svg><style>@media (prefers-color-scheme: light) { :root { filter: none; } }
@media (prefers-color-scheme: dark) { :root { filter: none; } }
</style></svg>